<?xml version="1.0" standalone="no"?>
<!DOCTYPE svg PUBLIC "-//W3C//DTD SVG 1.1//EN" "http://www.w3.org/Graphics/SVG/1.1/DTD/svg11.dtd" >
<svg>
<metadata>
Created by FontForge 20090914 at Wed Nov 22 13:06:11 2017
 By www-data
Copyright .51 2002-2004 by Maxim Iorsh (iorsh@math.technion.ac.il). Distributed under the terms of GNU General Public License version 2(http://www.gnu.org/licenses/gpl.html). 
Latin glyphs and part of punctuation Copyright (URW)++,Copyright 1999 by (URW)++ Design &#38; Development.
All rights reserved.
</metadata>
<defs>
<font id="AharoniCLM-Book" horiz-adv-x="0" >
  <font-face 
    font-family="Aharoni CLM"
    font-weight="400"
    font-stretch="normal"
    units-per-em="1090"
    panose-1="2 0 5 3 0 0 0 0 0 0"
    ascent="872"
    descent="-218"
    x-height="547"
    cap-height="739"
    bbox="-170 -300 950 900"
    underline-thickness="50"
    underline-position="-75"
    unicode-range="U+0020-U+FB4F"
  />
<missing-glyph horiz-adv-x="1090" 
 />
    <glyph glyph-name="afii57705" unicode="&#x5f2;&#x5b7;" horiz-adv-x="440" 
d="M146 282h200v-60h-200v60zM358 336h-84v184h-54v80h85c16 0 28.833 -4.83301 38.5 -14.5s14.5 -22.5 14.5 -38.5v-211zM138 336h-84v184h-54v80h85c16 0 28.833 -4.83301 38.5 -14.5s14.5 -22.5 14.5 -38.5v-211z" />
    <glyph glyph-name=".notdef" horiz-adv-x="1090" 
 />
    <glyph glyph-name="space" unicode=" " horiz-adv-x="299" 
 />
    <glyph glyph-name="exclam" unicode="!" horiz-adv-x="190" 
d="M95 90c12.667 0 23.334 -4.33301 32.001 -13s13 -19.334 13 -32.001s-4.33301 -23.334 -13 -32.001s-19.334 -13 -32.001 -13s-23.334 4.33301 -32.001 13s-13 19.334 -13 32.001s4.33301 23.334 13 32.001s19.334 13 32.001 13zM53 600h84v-420h-84v420z" />
    <glyph glyph-name="quotedbl" unicode="&#x22;" horiz-adv-x="287" 
d="M171 600h86l-48 -182h-38v182zM45 600h86l-48 -182h-38v182z" />
    <glyph glyph-name="numbersign" unicode="#" horiz-adv-x="554" 
d="M534 298v-61h-135l-43 -237h-66l43 237h-164l-45 -237h-65l45 237h-99v61h111l29 155h-124v61h135l42 225h64l-41 -225h163l40 225h67l-41 -225h99v-61h-110l-28 -155h123zM373 453h-163l-29 -155h163z" />
    <glyph glyph-name="dollar" unicode="$" horiz-adv-x="554" 
d="M245 -56l-0.000976562 85c-57.333 10.667 -100.5 33 -129.5 67s-42.5 78 -40.5 132h69c2.66699 -43.333 15.667 -77.166 39 -101.499s54.666 -36.5 93.999 -36.5c37.333 0 68 12.667 92 38s36 57.333 36 96c0 40.667 -14 73 -42 97c-18.667 15.333 -49.667 29.333 -93 42
c-37.333 11.333 -65.166 22.166 -83.499 32.499s-34.166 23.833 -47.499 40.5c-26 31.333 -39 70 -39 116c0 45.333 13 83.833 39 115.5s61.333 51.834 106 60.501v82h66v-82c49.333 -7.33301 88.166 -27 116.499 -59s43.5 -72.667 45.5 -122h-70
c-2 37.333 -13.167 66.333 -33.5 87s-47.833 31 -82.5 31s-62.167 -10.667 -82.5 -32s-30.5 -50.333 -30.5 -87c0 -30.667 8.5 -54.167 25.5 -70.5s49.167 -32.166 96.5 -47.499c62 -20 104.667 -41.667 128 -65c36.667 -34.667 55 -80.334 55 -137.001
c0 -52.667 -15.667 -97.334 -47 -134.001s-71.666 -57.667 -120.999 -63v-85h-66z" />
    <glyph glyph-name="percent" unicode="%" horiz-adv-x="775" 
d="M514 739h74l-334 -739h-72zM578 338c47.333 0 88.168 -17.333 122.501 -52s51.5 -75.667 51.5 -123c0 -48.667 -17.167 -90.167 -51.5 -124.5s-75.833 -51.5 -124.5 -51.5c-48 0 -89.167 17.167 -123.5 51.5s-51.5 75.5 -51.5 123.5c0 49.333 17.167 91 51.5 125
s76.166 51 125.499 51zM577.002 272c-30.667 0 -56.498 -10.667 -77.498 -32s-31.5 -47.333 -31.5 -78c0 -30 10.667 -55.667 32 -77s46.666 -32 75.999 -32s54.666 10.667 75.999 32s32 47 32 77s-10.5 55.833 -31.5 77.5s-46.167 32.5 -75.5 32.5zM190.004 749
c47.333 0 88.168 -17.333 122.501 -52s51.5 -76 51.5 -124c0 -48.667 -17.167 -90.167 -51.5 -124.5s-75.833 -51.5 -124.5 -51.5c-48 0 -89.167 17.167 -123.5 51.5s-51.5 75.833 -51.5 124.5c0 49.333 17.167 91 51.5 125s76.166 51 125.499 51zM189.006 683
c-30.667 0 -56.666 -10.667 -77.999 -32s-32 -47.333 -32 -78c0 -30 10.667 -55.833 32 -77.5s47 -32.5 77 -32.5c29.333 0 54.666 10.667 75.999 32s32 47.333 32 78c0 30 -10.5 55.833 -31.5 77.5s-46.167 32.5 -75.5 32.5z" />
    <glyph glyph-name="ampersand" unicode="&#x26;" horiz-adv-x="757" 
d="M602 481h82l-136 -261l187 -182l-51 -51l-171 166c-29.333 -58 -61.666 -100.167 -96.999 -126.5s-77.333 -39.5 -126 -39.5c-68 0 -123.667 21.667 -167 65c-44 45.333 -66 99 -66 161c0 66.667 27 121.667 81 165c24 18.667 53.667 37 89 55
c-30.667 32 -52 59.5 -64 82.5s-18 47.167 -18 72.5c0 46 17 84.833 51 116.5s75.333 47.5 124 47.5c51.333 0 93.833 -16 127.5 -48s50.5 -72.333 50.5 -121c0 -52 -22.333 -94.667 -67 -128c-12.667 -10 -38.334 -24.667 -77.001 -44l140 -138zM458 206l-178 173.999
c-54.667 -26.667 -93.334 -53.167 -116.001 -79.5s-34 -58.166 -34 -95.499c0 -42 15 -77.667 45 -107s66.667 -44 110 -44c35.333 0 66.333 11.667 93 35s53.334 62.333 80.001 117zM300 463.999c44 16.667 76.333 35.168 97 55.501s31 43.5 31 69.5
c0 27.333 -10.167 50.166 -30.5 68.499s-45.5 27.5 -75.5 27.5c-28.667 0 -53 -9.16699 -73 -27.5s-30 -40.833 -30 -67.5c0 -34.667 27 -76.667 81 -126z" />
    <glyph glyph-name="quotesingle" unicode="'" horiz-adv-x="161" 
d="M45 600h86l-48 -182h-38v182z" />
    <glyph glyph-name="parenleft" unicode="(" horiz-adv-x="281" 
d="M36 300c0 99.333 36 199.333 108 300h95c-81.333 -84.667 -122 -184.667 -122 -300s40.667 -215.333 122 -300h-95c-72 100.667 -108 200.667 -108 300z" />
    <glyph glyph-name="parenright" unicode=")" horiz-adv-x="266" 
d="M240 300c0 -99.333 -36 -199.333 -108 -300h-95c81.333 84.667 122 184.667 122 300s-40.667 215.333 -122 300h95c72 -100.667 108 -200.667 108 -300z" />
    <glyph glyph-name="asterisk" unicode="*" horiz-adv-x="425" 
d="M267 752l47 -28l-57 -92l103 3v-52l-102 2l55 -90l-47 -27l-53 91l-53 -91l-48 28l57 89l-105 -2v52l105 -3l-56 92l49 28l53 -90z" />
    <glyph glyph-name="plus" unicode="+" horiz-adv-x="606" 
d="M265 341v216h77v-216h213v-74h-213v-218h-77v218h-214v74h214z" />
    <glyph glyph-name="comma" unicode="," horiz-adv-x="136" 
d="M30 140h86l-48 -182h-38v182z" />
    <glyph glyph-name="hyphen" unicode="-" horiz-adv-x="396" 
d="M38 340h350v-80h-350v80z" />
    <glyph glyph-name="period" unicode="." horiz-adv-x="151" 
d="M66 90c12.667 0 23.334 -4.33301 32.001 -13s13 -19.334 13 -32.001s-4.33301 -23.334 -13 -32.001s-19.334 -13 -32.001 -13s-23.334 4.33301 -32.001 13s-13 19.334 -13 32.001s4.33301 23.334 13 32.001s19.334 13 32.001 13z" />
    <glyph glyph-name="slash" unicode="/" horiz-adv-x="376" 
d="M262 600h84l-271 -600h-84z" />
    <glyph glyph-name="zero" unicode="0" horiz-adv-x="450" 
d="M417 300c0 -40 -3.16699 -76.833 -9.5 -110.5s-16.5 -65.334 -30.5 -95.001s-33.833 -52.834 -59.5 -69.501s-56.5 -25 -92.5 -25s-66.833 8.33301 -92.5 25s-45.5 39.834 -59.5 69.501s-24.167 61.334 -30.5 95.001s-9.5 70.5 -9.5 110.5s3.16699 76.833 9.5 110.5
s16.5 65.334 30.5 95.001s33.833 52.834 59.5 69.501s56.5 25 92.5 25s66.833 -8.33301 92.5 -25s45.5 -39.834 59.5 -69.501s24.167 -61.334 30.5 -95.001s9.5 -70.5 9.5 -110.5zM333 300c0 28.667 -1.16699 54.167 -3.5 76.5s-7 45.333 -14 69s-18.167 42 -33.5 55
s-34.333 19.5 -57 19.5s-41.667 -6.5 -57 -19.5s-26.5 -31.333 -33.5 -55s-11.667 -46.667 -14 -69s-3.5 -47.833 -3.5 -76.5s1.16699 -54.167 3.5 -76.5s7 -45.333 14 -69s18.167 -42 33.5 -55s34.333 -19.5 57 -19.5s41.667 6.5 57 19.5s26.5 31.333 33.5 55
s11.667 46.667 14 69s3.5 47.833 3.5 76.5z" />
    <glyph glyph-name="one" unicode="1" horiz-adv-x="450" 
d="M152 472c16 16 29 28.5 39 37.5s19.167 20.167 27.5 33.5s17.5 32.333 27.5 57h52v-600h-84v440c-12 -12.667 -32.667 -29 -62 -49v81z" />
    <glyph glyph-name="two" unicode="2" horiz-adv-x="450" 
d="M70 524c53.333 50.667 108 76.002 164 76.002c53.333 0 94.666 -17.667 123.999 -53s44 -74 44 -116c0 -16 -2.66699 -33.333 -8 -52s-12.833 -37.334 -22.5 -56.001s-20.834 -38.334 -33.501 -59.001s-26.5 -40.834 -41.5 -60.501l-47 -61.5l-48.5 -62h218l-34 -80h-355
l102 123.5c31.333 37.667 61.5 76.167 90.5 115.5s51.5 73 67.5 101c36 64.667 36.667 115 2 151c-16.667 17.333 -35.667 26.5 -57 27.5s-41.166 -3.66699 -59.499 -14s-35.166 -24.166 -50.499 -41.499z" />
    <glyph glyph-name="three" unicode="3" horiz-adv-x="450" 
d="M80 561c29.333 26 68.334 39.001 117.001 39.001c40 0 76.833 -12.833 110.5 -38.5s50.5 -62.5 50.5 -110.5c0 -45.333 -22 -81.333 -66 -108c65.333 -23.333 98 -74.333 98 -153c0 -48.667 -18.833 -92.5 -56.5 -131.5s-89.834 -58.5 -156.501 -58.5
c-15.333 0 -30 1.66699 -44 5s-25.167 6.66602 -33.5 9.99902s-21.833 9.33301 -40.5 18v80c34.667 -22 69.667 -33 105 -33c46.667 0 82.667 11.833 108 35.5s38 48.834 38 75.501c0 40 -17.333 70.667 -52 92s-63.667 31.666 -87 30.999v63c70.667 10 106 34.667 106 74
c0 19.333 -8.5 35.666 -25.5 48.999s-37.5 20 -61.5 20c-14.667 0 -28.667 -2.33301 -42 -7s-24 -9.16699 -32 -13.5s-20 -12.166 -36 -23.499v85z" />
    <glyph glyph-name="four" unicode="4" horiz-adv-x="450" 
d="M127 192h150v236zM19 166l278 434h64v-408h70l-32 -80h-38v-112h-84v112h-258v54z" />
    <glyph glyph-name="five" unicode="5" horiz-adv-x="450" 
d="M139 600h249l-20 -80h-164l-29 -110c63.333 0 116 -19.333 158 -58s63 -84.667 63 -138c0 -64.667 -21.5 -116.5 -64.5 -155.5s-90.833 -58.5 -143.5 -58.5c-40 0 -84.667 12 -134 36l16 85c30.667 -27.333 65.667 -41 105 -41c38.667 0 71.5 12.5 98.5 37.5
s40.167 56.833 39.5 95.5c0 32.667 -13 59.5 -39 80.5s-57.333 32.833 -94 35.5s-75 -1 -115 -11z" />
    <glyph glyph-name="six" unicode="6" horiz-adv-x="450" 
d="M213 379c2 0.666992 5.99902 1 11.999 1c52.667 0 97.5 -18.5 134.5 -55.5s55.5 -81.833 55.5 -134.5s-18.5 -97.5 -55.5 -134.5s-81.833 -55.5 -134.5 -55.5s-97.5 18.5 -134.5 55.5s-55.5 81.833 -55.5 134.5c0 26 6.33301 55 19 87s26.334 58.667 41.001 80l165 243
h99zM224.999 292c-29.333 0 -54.333 -10.333 -75 -31s-31 -45.667 -31 -75s10.333 -54.333 31 -75s45.667 -31 75 -31s54.333 10.333 75 31s31 45.667 31 75s-10.333 54.333 -31 75s-45.667 31 -75 31z" />
    <glyph glyph-name="seven" unicode="7" horiz-adv-x="450" 
d="M41 520l35 80h333l-248 -600h-88l216 520h-248z" />
    <glyph glyph-name="eight" unicode="8" horiz-adv-x="450" 
d="M225 520c-19.333 0 -35.833 -7 -49.5 -21s-20.5 -31 -20.5 -51s6.83301 -37 20.5 -51s30.167 -21 49.5 -21s35.833 7 49.5 21s20.5 31 20.5 51s-6.83301 37 -20.5 51s-30.167 21 -49.5 21zM225 276c-27.333 0 -50.833 -9.66699 -70.5 -29s-29.5 -42.333 -29.5 -69
s9.83301 -49.667 29.5 -69s43.167 -29 70.5 -29s50.833 9.66699 70.5 29s29.5 42.333 29.5 69s-9.83301 49.667 -29.5 69s-43.167 29 -70.5 29zM321 330c26.667 -16 48 -37.5 64 -64.5s24 -56.167 24 -87.5c0 -49.333 -18 -91.333 -54 -126s-79.333 -52 -130 -52
s-94 17.333 -130 52s-54 76.667 -54 126c0 31.333 8 60.5 24 87.5s37.333 48.5 64 64.5c-38.667 29.333 -58 68.666 -58 117.999c0 42 15 77.833 45 107.5s66.333 44.5 109 44.5s79 -14.833 109 -44.5s45 -65.5 45 -107.5c0 -49.333 -19.333 -88.666 -58 -117.999z" />
    <glyph glyph-name="nine" unicode="9" horiz-adv-x="450" 
d="M237 221c-2 -0.666992 -5.99902 -1 -11.999 -1c-52.667 0 -97.5 18.5 -134.5 55.5s-55.5 81.833 -55.5 134.5s18.5 97.5 55.5 134.5s81.833 55.5 134.5 55.5s97.5 -18.5 134.5 -55.5s55.5 -81.833 55.5 -134.5c0 -26 -6.33301 -55 -19 -87s-26.334 -58.667 -41.001 -80
l-165 -243h-99zM225.001 308c29.333 0 54.333 10.333 75 31s31 45.667 31 75s-10.333 54.333 -31 75s-45.667 31 -75 31s-54.333 -10.333 -75 -31s-31 -45.667 -31 -75s10.333 -54.333 31 -75s45.667 -31 75 -31z" />
    <glyph glyph-name="colon" unicode=":" horiz-adv-x="168" 
d="M83 404c12.667 0 23.334 -4.33301 32.001 -13s13 -19.334 13 -32.001s-4.33301 -23.334 -13 -32.001s-19.334 -13 -32.001 -13s-23.334 4.33301 -32.001 13s-13 19.334 -13 32.001s4.33301 23.334 13 32.001s19.334 13 32.001 13zM83 90
c12.667 0 23.334 -4.33301 32.001 -13s13 -19.334 13 -32.001s-4.33301 -23.334 -13 -32.001s-19.334 -13 -32.001 -13s-23.334 4.33301 -32.001 13s-13 19.334 -13 32.001s4.33301 23.334 13 32.001s19.334 13 32.001 13z" />
    <glyph glyph-name="semicolon" unicode=";" horiz-adv-x="149" 
d="M43 140h86l-48 -182h-38v182zM85 404c12.667 0 23.334 -4.33301 32.001 -13s13 -19.334 13 -32.001s-4.33301 -23.334 -13 -32.001s-19.334 -13 -32.001 -13s-23.334 4.33301 -32.001 13s-13 19.334 -13 32.001s4.33301 23.334 13 32.001s19.334 13 32.001 13z" />
    <glyph glyph-name="less" unicode="&#x3c;" horiz-adv-x="606" 
d="M558 565v-78l-401 -187l401 -185v-78l-509 231v65z" />
    <glyph glyph-name="equal" unicode="=" horiz-adv-x="606" 
d="M555 436v-74h-504v74h504zM555 238v-74h-504v74h504z" />
    <glyph glyph-name="greater" unicode="&#x3e;" horiz-adv-x="606" 
d="M48 37v78l402 187l-402 185v78l509 -231v-65z" />
    <glyph glyph-name="question" unicode="?" horiz-adv-x="471" 
d="M278 186l0.000976562 -58h-84v141c12 -4.66699 26 -7 42 -7c36 0 66.667 12.667 92 38s38 56 38 92s-12.667 66.667 -38 92s-56 38 -92 38s-66.667 -12.667 -92 -38s-38 -56 -38 -92l-79 17c4 54 26.167 99.667 66.5 137s87.833 56 142.5 56
c58 0 107.5 -20.5 148.5 -61.5s61.5 -90.5 61.5 -148.5c0 -50.667 -15.833 -95.167 -47.5 -133.5s-71.834 -62.5 -120.501 -72.5zM236.001 90c12.667 0 23.334 -4.33301 32.001 -13s13 -19.334 13 -32.001s-4.33301 -23.334 -13 -32.001s-19.334 -13 -32.001 -13
s-23.334 4.33301 -32.001 13s-13 19.334 -13 32.001s4.33301 23.334 13 32.001s19.334 13 32.001 13z" />
    <glyph glyph-name="at" unicode="@" horiz-adv-x="867" 
d="M656 574l-92.9971 -278.001c-13.333 -40.667 -20 -66.334 -20 -77.001c0 -8 3.16699 -14.667 9.5 -20s14.5 -8 24.5 -8c28 0 57.667 16.333 89 49c54 52.667 81 117.334 81 194.001c0 75.333 -28.167 138.666 -84.5 189.999s-126.5 77 -210.5 77
c-90.667 0 -168.167 -32.667 -232.5 -98s-96.5 -143.666 -96.5 -234.999c0 -92 32 -170.167 96 -234.5s142 -96.5 234 -96.5s170 33.667 234 101l40 -33c-30.667 -36.667 -70.834 -65.5 -120.501 -86.5s-101.5 -31.5 -155.5 -31.5c-106 0 -195.833 36.833 -269.5 110.5
s-110.5 163.5 -110.5 269.5c0 106.667 37.167 197.5 111.5 272.5s164.5 112.5 270.5 112.5c91.333 0 170 -28.333 236 -85c72 -60.667 108 -138.667 108 -234c0 -94 -34 -172.333 -102 -235c-42 -39.333 -85.667 -59 -131 -59c-23.333 0 -41.833 4.33301 -55.5 13
s-24.5 23.334 -32.5 44.001c-34.667 -34.667 -74.334 -52 -119.001 -52c-40.667 0 -73.834 13.833 -99.501 41.5s-38.5 63.167 -38.5 106.5c0 76.667 25.167 146 75.5 208s106.5 93 168.5 93c31.333 0 58 -7.33301 80 -22c13.333 -8 25 -23.667 35 -47l17 50h61z
M466.003 538.999c-44 0 -84.167 -25.5 -120.5 -76.5s-54.5 -107.167 -54.5 -168.5c0 -27.333 7.33301 -49.5 22 -66.5s34 -25.5 58 -25.5c43.333 0 81.666 29.667 114.999 89c14.667 26.667 27.334 56.667 38.001 90s16 59.333 16 78c0 24.667 -6.66699 44.167 -20 58.5
s-31.333 21.5 -54 21.5z" />
    <glyph glyph-name="A" unicode="A" horiz-adv-x="740" 
d="M11 0l317 739h83l318 -739h-81l-107 249h-344l-108 -249h-78zM225 316h287l-142 339z" />
    <glyph glyph-name="B" unicode="B" horiz-adv-x="574" 
d="M76 0l-0.000976562 739.001h173c84.667 0 147 -14.333 187 -43c44 -32.667 66 -82.334 66 -149.001c0 -71.333 -27.333 -122.333 -82 -153c82.667 -33.333 124 -94 124 -182c0 -38 -7.33301 -72.333 -22 -103s-35 -54 -61 -70c-43.333 -26 -110.666 -39 -201.999 -39
h-183zM149.999 67.001h101.001c73.333 0 126.666 9 159.999 27c17.333 9.33301 31.333 24.333 42 45s16 43.667 16 69c0 60 -23 101.667 -69 125c-28.667 14 -82.667 21 -162 21h-88v-287zM150 421.001l89.999 0.00195312c58.667 0 102 6.33301 130 19
c38 17.333 57 52.666 57 105.999c0 21.333 -4 41.166 -12 59.499s-18.333 31.833 -31 40.5c-25.333 17.333 -73.666 26 -144.999 26h-89v-251z" />
    <glyph glyph-name="C" unicode="C" horiz-adv-x="813" 
d="M688 194l82 0.000976562c-74.667 -138 -187.334 -207 -338.001 -207c-110.667 0 -203 36.333 -277 109s-111 163 -111 271c0 110.667 36.333 202.5 109 275.5s164 109.5 274 109.5c76.667 0 145.334 -18.333 206.001 -55s105.334 -86.667 134.001 -150h-83
c-25.333 40 -52.333 69 -81 87c-49.333 33.333 -107 50 -173 50c-88 0 -161.833 -30.167 -221.5 -90.5s-89.5 -134.833 -89.5 -223.5c0 -86.667 30.667 -160.834 92 -222.501s134.666 -92.5 219.999 -92.5c70.667 0 131.667 20.333 183 61c20 15.333 44.667 41.333 74 78z
" />
    <glyph glyph-name="D" unicode="D" horiz-adv-x="744" 
d="M76 0l0.000976562 739h174c67.333 0 122.5 -4.5 165.5 -13.5s81.833 -23.833 116.5 -44.5c112 -66 168 -170.667 168 -314c0 -140.667 -57 -244.667 -171 -312c-62.667 -36.667 -147.334 -55 -254.001 -55h-199zM150.001 67l103.002 0.00292969
c65.333 0 118.666 5.16699 159.999 15.5s76.666 27.166 105.999 50.499c70.667 57.333 106 136.333 106 237c0 55.333 -11.667 105.166 -35 149.499s-56.333 79.166 -99 104.499c-52.667 32 -132 48 -238 48h-103v-605z" />
    <glyph glyph-name="E" unicode="E" horiz-adv-x="536" 
d="M76 0v739h404v-67h-330v-265h319v-67h-319v-273h330v-67h-404z" />
    <glyph glyph-name="F" unicode="F" horiz-adv-x="485" 
d="M76 0v739h375v-67h-301v-267h290v-67h-290v-338h-74z" />
    <glyph glyph-name="G" unicode="G" horiz-adv-x="872" 
d="M329 341l501.996 0.000976562c-5.33301 -84 -37.666 -160.333 -96.999 -229c-73.333 -83.333 -169.333 -125 -288 -125c-113.333 0 -208.666 37 -285.999 111s-116 165 -116 273c0 106.667 37.833 196.834 113.5 270.501s168.5 110.5 278.5 110.5
c80.667 0 153 -19.333 217 -58s108.333 -89.334 133 -152.001h-83c-25.333 44.667 -60.833 79.5 -106.5 104.5s-97.167 37.5 -154.5 37.5c-91.333 0 -168 -30.333 -230 -91s-93 -135.334 -93 -224.001c0 -88 31.333 -162.333 94 -223s139.334 -91 230.001 -91
c88.667 0 162.334 29.333 221.001 88c41.333 41.333 67.333 85 78 131h-413v67z" />
    <glyph glyph-name="H" unicode="H" horiz-adv-x="683" 
d="M76 0v739h74v-325h383v325h74v-739h-74v347h-383v-347h-74z" />
    <glyph glyph-name="I" unicode="I" horiz-adv-x="226" 
d="M76 0v739h74v-739h-74z" />
    <glyph glyph-name="J" unicode="J" horiz-adv-x="482" 
d="M406 739v-507.998c0 -62.667 -9.66699 -112.334 -29 -149.001c-31.333 -64 -87.333 -96 -168 -96c-58.667 0 -105.5 16.667 -140.5 50s-54.167 79.666 -57.5 138.999h73c2.66699 -37.333 15.167 -66.833 37.5 -88.5s51.833 -32.5 88.5 -32.5c81.333 0 122 59 122 177v508
h74z" />
    <glyph glyph-name="K" unicode="K" horiz-adv-x="591" 
d="M76 0v739h74v-425l342 425h93l-292 -360l292 -379h-93l-246 320l-96 -118v-202h-74z" />
    <glyph glyph-name="L" unicode="L" horiz-adv-x="462" 
d="M76 0v739h74v-672h306v-67h-380z" />
    <glyph glyph-name="M" unicode="M" horiz-adv-x="919" 
d="M76 0v739h115l269 -629l268 629h115v-739h-74v658l-278 -658h-64l-277 658v-658h-74z" />
    <glyph glyph-name="N" unicode="N" horiz-adv-x="740" 
d="M76 0v739h100l414 -613v613h74v-739h-74l-440 650v-650h-74z" />
    <glyph glyph-name="O" unicode="O" horiz-adv-x="869" 
d="M435 752c107.333 0 199.168 -37.5 275.501 -112.5s114.5 -165.167 114.5 -270.5c0 -104.667 -38.333 -194.5 -115 -269.5s-168.334 -112.5 -275.001 -112.5c-108.667 0 -201 37.667 -277 113s-114 166.666 -114 273.999c0 102.667 38.667 191.334 116 266.001
s169 112 275 112zM435.002 684c-85.333 0 -159.333 -30.832 -222 -92.499s-94 -134.834 -94 -219.501c0 -87.333 30.833 -162 92.5 -224s136.167 -93 223.5 -93c86 0 160 30.833 222 92.5s93 135.167 93 220.5c0 86.667 -31 161 -93 223s-136 93 -222 93z" />
    <glyph glyph-name="P" unicode="P" horiz-adv-x="592" 
d="M76 0l-0.000976562 739.001h204c88.667 0 154.334 -13 197.001 -39c58.667 -34.667 88 -96.334 88 -185.001c0 -77.333 -24.667 -134 -74 -170c-42 -30.667 -108.333 -46 -199 -46h-142v-299h-74zM149.999 366.001h137c66 0 113.333 8.33301 142 25
c40.667 22.667 61 64 61 124c0 67.333 -22.333 112.333 -67 135c-29.333 14.667 -85.333 22 -168 22h-105v-306z" />
    <glyph glyph-name="Q" unicode="Q" horiz-adv-x="871" 
d="M827 56l0.000976562 -69c-34.667 0.666992 -64 5.66699 -88 15s-48.667 25.666 -74 48.999c-62.667 -42.667 -136.667 -64 -222 -64c-110.667 0 -204.834 37.167 -282.501 111.5s-116.5 164.5 -116.5 270.5c0 109.333 38.167 200.5 114.5 273.5s171.5 109.5 285.5 109.5
c113.333 0 207.5 -36.167 282.5 -108.5s112.5 -163.166 112.5 -272.499c0 -115.333 -41 -208 -123 -278c35.333 -25.333 67.333 -38 96 -38c6 0 11 0.333008 15 1zM161.001 216c19.333 -35.333 47.999 -67.333 85.999 -96c56.667 -43.333 122 -65 196 -65
c59.333 0 113.333 15 162 45c-53.333 48.667 -105.666 83.667 -156.999 105s-108.333 32 -171 32c-42 0 -80.667 -7 -116 -21zM130 279c52 17.333 104.666 26.001 157.999 26.001c104.667 0 198.334 -29.333 281.001 -88c36 -26.667 67.333 -51.667 94 -75
c67.333 64.667 101 141 101 229c0 88.667 -30.833 163 -92.5 223s-138.167 90 -229.5 90s-168 -30.833 -230 -92.5s-93 -137.834 -93 -228.501c0 -23.333 3.66699 -51.333 11 -84z" />
    <glyph glyph-name="R" unicode="R" horiz-adv-x="607" 
d="M359 276l207 -276h-92l-249 335c76 0 131 4.33301 165 13c74.667 20 112 72 112 156c0 69.333 -26 116.333 -78 141c-38 18 -94.667 27 -170 27h-104v-672h-74v739h183c94 0 163 -12 207 -36c74 -40 111 -107.333 111 -202c0 -65.333 -18.667 -117.333 -56 -156
s-91.333 -61.667 -162 -69z" />
    <glyph glyph-name="S" unicode="S" horiz-adv-x="498" 
d="M22 207l78.999 -0.00195312c4.66699 -41.333 16.334 -73.666 35.001 -96.999c29.333 -36.667 69 -55 119 -55c42 0 76.833 13.833 104.5 41.5s41.5 62.834 41.5 105.501c0 46.667 -17 82 -51 106c-22.667 16 -60.667 32.333 -114 49
c-42.667 12.667 -72.667 23.167 -90 31.5s-33.333 19.5 -48 33.5c-34.667 32.667 -52 76.334 -52 131.001c0 57.333 19.333 104.833 58 142.5s87.667 56.5 147 56.5c60.667 0 110 -18.333 148 -55s57.667 -85 59 -145h-77c-2.66699 40 -16 72 -40 96s-54.667 36 -92 36
c-36.667 0 -67.167 -12.167 -91.5 -36.5s-36.5 -55.166 -36.5 -92.499c0 -36 11.667 -64.667 35 -86c16 -14 52.333 -29.333 109 -46c64 -19.333 109.667 -39 137 -59c49.333 -36.667 74 -89.334 74 -158.001c0 -62.667 -21.167 -114.834 -63.5 -156.501
s-95.5 -62.5 -159.5 -62.5c-66.667 0 -121 20 -163 60s-64.667 93.333 -68 160z" />
    <glyph glyph-name="T" unicode="T" horiz-adv-x="426" 
d="M176 0v672h-169v67h412v-67h-169v-672h-74z" />
    <glyph glyph-name="U" unicode="U" horiz-adv-x="655" 
d="M76 739h73.999v-461c0 -67.333 11.333 -118.333 34 -153c14 -21.333 33.833 -38.333 59.5 -51s53.834 -19 84.501 -19c30 0 57.833 6.33301 83.5 19s45.5 29.667 59.5 51c22.667 34.667 34 85.667 34 153v461h74v-461c0 -87.333 -17.333 -154 -52 -200
c-22 -28.667 -50.667 -51 -86 -67s-73.333 -24 -114 -24s-78.5 8 -113.5 24s-63.5 38.333 -85.5 67c-34.667 46 -52 112.667 -52 200v461z" />
    <glyph glyph-name="V" unicode="V" horiz-adv-x="702" 
d="M314 0l-304 739h81l260 -647l261 647h80l-306 -739h-72z" />
    <glyph glyph-name="W" unicode="W" horiz-adv-x="960" 
d="M221 0l-211 739h76l182 -643l177 643h70l177 -643l182 643h76l-212 -739h-95l-164 606l-162 -606h-96z" />
    <glyph glyph-name="X" unicode="X" horiz-adv-x="609" 
d="M8 0l251 378l-237 361h87l196 -296l195 296h86l-237 -361l252 -378h-87l-209 316l-210 -316h-87z" />
    <glyph glyph-name="Y" unicode="Y" horiz-adv-x="592" 
d="M258 0v247l-256 492h82l210 -414l215 414h81l-258 -492v-247h-74z" />
    <glyph glyph-name="Z" unicode="Z" horiz-adv-x="480" 
d="M17 0v67l363 605h-352v67h435v-67l-362 -605h373v-67h-457z" />
    <glyph glyph-name="bracketleft" unicode="[" horiz-adv-x="351" 
d="M313 -50l-0.000976562 -74.999c-52.667 15.333 -97.667 42.666 -135 81.999c-23.333 26 -40.166 55 -50.499 87s-15.5 72 -15.5 120v298c0 84 24.333 151.333 73 202c36 36.667 78.667 61.667 128 75v-75c-48.667 -21.333 -82.667 -47.833 -102 -79.5
s-29 -77.167 -29 -136.5v-271c0 -64 9.5 -112.333 28.5 -145s53.167 -60 102.5 -82z" />
    <glyph glyph-name="backslash" unicode="\" horiz-adv-x="605" 
d="M464 0h-70l-310 739h70z" />
    <glyph glyph-name="bracketright" unicode="]" horiz-adv-x="351" 
d="M38 664l0.000976562 74.999c54 -15.333 99 -42.666 135 -81.999c23.333 -26 40.166 -55 50.499 -87s15.5 -72 15.5 -120v-297c0 -84.667 -24.333 -152.334 -73 -203.001c-36 -36.667 -78.667 -61.667 -128 -75v75c49.333 22 83.5 48.833 102.5 80.5
s28.5 76.834 28.5 135.501v272c0 63.333 -9.5 111.333 -28.5 144s-53.167 60 -102.5 82z" />
    <glyph glyph-name="asciicircum" unicode="^" horiz-adv-x="606" 
d="M588 180h-81l-203 480l-205 -480h-81l243 559h85z" />
    <glyph glyph-name="underscore" unicode="_" horiz-adv-x="500" 
d="M0 -67h500v-58h-500v58z" />
    <glyph glyph-name="grave" unicode="`" horiz-adv-x="351" 
d="M260 547h-74l-88 192h74z" />
    <glyph glyph-name="a" unicode="a" horiz-adv-x="683" 
d="M620 547l-0.000976562 -546.999h-74v96c-29.333 -39.333 -60.166 -67.333 -92.499 -84s-71.833 -25 -118.5 -25c-84 0 -153.833 27.167 -209.5 81.5s-83.5 122.166 -83.5 203.499c0 82 27.5 150.5 82.5 205.5s123.5 82.5 205.5 82.5c92 0 164 -36.667 216 -110v97h74z
M331.999 492.001c-59.333 0 -110.001 -21 -152.001 -63s-63 -92.667 -63 -152c0 -62.667 21 -115.334 63 -158.001s94 -64 156 -64c58.667 0 108.334 21.333 149.001 64s61 95 61 157c0 60.667 -20.667 111.834 -62 153.501s-92 62.5 -152 62.5z" />
    <glyph glyph-name="b" unicode="b" horiz-adv-x="682" 
d="M63 0l0.00195312 739h74v-286c48.667 71.333 120.334 107 215.001 107c81.333 0 149.666 -27.5 204.999 -82.5s83 -122.833 83 -203.5c0 -82 -27.5 -150.333 -82.5 -205s-123.833 -82 -206.5 -82c-44.667 0 -85.834 9.33301 -123.501 28s-67.834 45 -90.501 79v-94h-74z
M350.002 492c-61.333 0 -112.999 -20.8311 -154.999 -62.498s-63 -92.834 -63 -153.501c0 -61.333 21 -113.333 63 -156c42.667 -43.333 94 -65 154 -65c61.333 0 112.666 21.167 153.999 63.5s62 94.833 62 157.5c0 61.333 -20.5 112.666 -61.5 153.999
s-92.167 62 -153.5 62z" />
    <glyph glyph-name="c" unicode="c" horiz-adv-x="647" 
d="M524 161l83.998 0.000976562c-26 -50 -54.667 -87.333 -86 -112c-52.667 -41.333 -113.334 -62 -182.001 -62c-84 0 -154.667 27.667 -212 83s-86 123.666 -86 204.999c0 79.333 28.333 146.666 85 201.999s126 83 208 83c61.333 0 116.5 -16.167 165.5 -48.5
s84.5 -75.833 106.5 -130.5h-83c-43.333 74 -106.666 111 -189.999 111c-60.667 0 -112 -21.167 -154 -63.5s-63 -94.166 -63 -155.499c0 -60.667 21.333 -112.167 64 -154.5s94.667 -63.5 156 -63.5c38.667 0 72.334 8.16699 101.001 24.5s57.334 43.5 86.001 81.5z" />
    <glyph glyph-name="d" unicode="d" horiz-adv-x="685" 
d="M622 739l-0.000976562 -739h-74v99c-27.333 -39.333 -57.5 -67.833 -90.5 -85.5s-72.167 -26.5 -117.5 -26.5c-84.667 0 -155.5 27.333 -212.5 82s-85.5 122.667 -85.5 204s27.833 149.5 83.5 204.5s124.834 82.5 207.501 82.5c88 0 159.667 -33.333 215 -100v279h74z
M330.999 492c-59.333 0 -109.834 -21 -151.501 -63s-62.5 -93 -62.5 -153c0 -62.667 21.167 -115.167 63.5 -157.5s94.833 -63.5 157.5 -63.5c58.667 0 108.834 21.667 150.501 65s62.5 95 62.5 155s-21.5 111.167 -64.5 153.5s-94.833 63.5 -155.5 63.5z" />
    <glyph glyph-name="e" unicode="e" horiz-adv-x="650" 
d="M611 249h-494.999c2.66699 -54 24.834 -99.833 66.501 -137.5s90.5 -56.5 146.5 -56.5c41.333 0 79.666 11.5 114.999 34.5s60.666 53.167 75.999 90.5h77c-14 -42.667 -40.667 -82.667 -80 -120c-52 -48.667 -114 -73 -186 -73c-80.667 0 -149 27.833 -205 83.5
s-84 124.167 -84 205.5c0 79.333 27.5 146.5 82.5 201.5s122.167 82.5 201.5 82.5c52 0 100.167 -12.833 144.5 -38.5s78.833 -60.167 103.5 -103.5c24.667 -44 37 -100.333 37 -169zM118.001 316h419.001c-12.667 54.667 -37.834 97.667 -75.501 129s-83.167 47 -136.5 47
c-52 0 -97 -16.167 -135 -48.5s-62 -74.833 -72 -127.5z" />
    <glyph glyph-name="f" unicode="f" horiz-adv-x="314" 
d="M101 0l-0.000976562 480.001h-85v67h85c-2 128 68 192 210 192v-67c-50.667 -0.666992 -86.167 -10.334 -106.5 -29.001s-30.166 -50.667 -29.499 -96h136v-67h-136v-480h-74z" />
    <glyph glyph-name="g" unicode="g" horiz-adv-x="673" 
d="M610 547l0.000976562 -449.001c0 -53.333 -3.83301 -96.166 -11.5 -128.499s-20.834 -61.166 -39.501 -86.499c-49.333 -65.333 -123.333 -98 -222 -98c-68.667 0 -126.667 17 -174 51s-81 83 -101 147h72c20.667 -36.667 38.667 -61.667 54 -75
c38.667 -36.667 87.667 -55 147 -55c42 0 78.667 8.66699 110 26s54.333 41.666 69 72.999s22 72 22 122v37c-42 -82.667 -111.667 -124 -209 -124c-80 0 -147.5 27.333 -202.5 82s-82.5 122 -82.5 202c0 82.667 26.667 151.5 80 206.5s120 82.5 200 82.5
c88.667 0 160 -36.667 214 -110v97h74zM326.001 491.999c-60.667 0 -110.666 -20.168 -149.999 -60.501s-59 -91.833 -59 -154.5c0 -63.333 20 -116.166 60 -158.499s90 -63.5 150 -63.5c59.333 0 109 21.5 149 64.5s60 96.5 60 160.5c0 59.333 -20.333 109.5 -61 150.5
s-90.334 61.5 -149.001 61.5z" />
    <glyph glyph-name="h" unicode="h" horiz-adv-x="610" 
d="M63 0v738.999h74v-263c38.667 56 96.667 84 174 84c82.667 0 145.667 -28.333 189 -85c31.333 -42 47 -102.333 47 -181v-294h-74v294c0 61.333 -12.333 107.333 -37 138c-31.333 40 -75.333 60 -132 60c-60 0 -105.667 -22.667 -137 -68
c-20 -27.333 -30 -68.666 -30 -123.999v-300h-74z" />
    <glyph glyph-name="i" unicode="i" horiz-adv-x="200" 
d="M63 0v547h74v-547h-74zM63 613v126h74v-126h-74z" />
    <glyph glyph-name="j" unicode="j" horiz-adv-x="203" 
d="M140 547v-509c0 -53.333 -5 -93.833 -15 -121.5s-28.333 -51.5 -55 -71.5c-31.333 -22.667 -69.666 -35 -114.999 -37v71c41.333 2.66699 70.166 15.667 86.499 39s24.5 63.333 24.5 120v509h74zM66 613v126h74v-126h-74z" />
    <glyph glyph-name="k" unicode="k" horiz-adv-x="502" 
d="M63 0v739h74v-524l255 332h91l-213 -275l227 -272h-92l-182 219l-86 -106v-113h-74z" />
    <glyph glyph-name="l" unicode="l" horiz-adv-x="200" 
d="M63 0v739h74v-739h-74z" />
    <glyph glyph-name="m" unicode="m" horiz-adv-x="938" 
d="M63 0l-0.00390625 547.002h74v-63c20.667 27.333 42.834 46.833 66.501 58.5s52.834 17.5 87.501 17.5c40.667 0 75.334 -8.33301 104.001 -25s53.667 -43.334 75 -80.001c44.667 70.667 108 106 190 106c74.667 0 131.667 -26 171 -78
c29.333 -36.667 44 -89.334 44 -158.001v-325h-74v317c0 54.667 -10 96 -30 124c-26 34.667 -64.333 52 -115 52c-55.333 0 -96.666 -21 -123.999 -63c-17.333 -25.333 -26 -63 -26 -113v-317h-74v319c0 55.333 -11.333 96.333 -34 123c-28 33.333 -66 50 -114 50
c-46 0 -82 -15.167 -108 -45.5s-39 -72.833 -39 -127.5v-319h-74z" />
    <glyph glyph-name="n" unicode="n" horiz-adv-x="610" 
d="M63 0l0.000976562 547h74v-71c46 56 104.667 84 176 84c78.667 0 140.667 -28.333 186 -85c17.333 -23.333 29.666 -49 36.999 -77s11 -65 11 -111v-287h-74v287c0 66 -12 114.667 -36 146c-32 39.333 -76.333 59 -133 59c-61.333 0 -107.333 -22.333 -138 -67
c-19.333 -28.667 -29 -70 -29 -124v-301h-74z" />
    <glyph glyph-name="o" unicode="o" horiz-adv-x="655" 
d="M329 560c82 0 149.833 -27.168 203.5 -81.501s80.5 -123.166 80.5 -206.499c0 -82 -26.333 -150 -79 -204s-119 -81 -199 -81c-84.667 0 -154.667 27.333 -210 82s-83 124 -83 208c0 80 27.5 147.167 82.5 201.5s123.167 81.5 204.5 81.5zM329 491.999
c-60.667 0 -111.168 -20.668 -151.501 -62.001s-60.5 -93 -60.5 -155c0 -64 20.333 -116.667 61 -158s92.334 -62 155.001 -62c59.333 0 108.333 20.333 147 61s58 92.334 58 155.001c0 63.333 -19.833 116 -59.5 158s-89.5 63 -149.5 63z" />
    <glyph glyph-name="p" unicode="p" horiz-adv-x="682" 
d="M63 547l74.001 -0.000976562v-94c47.333 71.333 119 107 215 107c81.333 0 149.666 -27.667 204.999 -83s83 -123.666 83 -204.999c0 -80 -28 -147.5 -84 -202.5s-124.667 -82.5 -206 -82.5c-93.333 0 -164.333 35.667 -213 107v-286h-74v739zM349.001 491.999
c-60.667 0 -112.001 -20.832 -154.001 -62.499s-63 -92.834 -63 -153.501c0 -63.333 20.667 -116 62 -158s93.333 -63 156 -63c60.667 0 111.667 20.833 153 62.5s62 93.167 62 154.5c0 62.667 -20.667 115 -62 157s-92.666 63 -153.999 63z" />
    <glyph glyph-name="q" unicode="q" horiz-adv-x="682" 
d="M619 547v-739h-74v286c-48.667 -71.333 -119.667 -107 -213 -107c-81.333 0 -150 27.5 -206 82.5s-84 122.833 -84 203.5c0 81.333 27.667 149.5 83 204.5s123.666 82.5 204.999 82.5c96.667 0 168.334 -35.667 215.001 -107v94h74zM333 492
c-61.333 0 -112.666 -20.999 -153.999 -62.999s-62 -94.333 -62 -157c0 -61.333 20.667 -112.833 62 -154.5s92.666 -62.5 153.999 -62.5c60.667 0 112 20.833 154 62.5s63 92.5 63 152.5c0 63.333 -20.667 116.166 -62 158.499s-93 63.5 -155 63.5z" />
    <glyph glyph-name="r" unicode="r" horiz-adv-x="301" 
d="M63 0l-0.000976562 547h74v-78c14.667 30 34.334 52.167 59.001 66.5s56.667 22.5 96 24.5v-73c-103.333 -10 -155 -66 -155 -168v-319h-74z" />
    <glyph glyph-name="s" unicode="s" horiz-adv-x="388" 
d="M18 161l72.999 0.000976562c2 -33.333 12 -59.333 30 -78s42.333 -28 73 -28c26.667 0 48.667 9 66 27s26 40.667 26 68c0 31.333 -11.667 55 -35 71c-16 10.667 -39.667 22 -71 34c-39.333 16.667 -63.166 27.167 -71.499 31.5s-18.166 11.5 -29.499 21.5
c-27.333 25.333 -41 58 -41 98c0 44.667 14.667 81.5 44 110.5s66.333 43.5 111 43.5c44 0 80.333 -13.667 109 -41s43.667 -63 45 -107h-75c-4 53.333 -30.667 80 -80 80c-22 0 -40.667 -7.66699 -56 -23s-23 -34 -23 -56c0 -31.333 16.667 -55.333 50 -72
c13.333 -6.66699 47.666 -21.334 102.999 -44.001c63.333 -26.667 95 -73.334 95 -140.001c0 -50 -15.5 -90.833 -46.5 -122.5s-71.167 -47.5 -120.5 -47.5c-52.667 0 -95 15.833 -127 47.5s-48.333 73.834 -49 126.501z" />
    <glyph glyph-name="t" unicode="t" horiz-adv-x="339" 
d="M130 0v480h-118v67h118v192h74v-192h123v-67h-123v-480h-74z" />
    <glyph glyph-name="u" unicode="u" horiz-adv-x="608" 
d="M545 547l-0.000976562 -546.999h-74v85c-35.333 -65.333 -94 -98 -176 -98c-84 0 -147 29 -189 87c-28.667 39.333 -43 98.666 -43 177.999v295h74v-295c0 -56.667 8.66699 -99.334 26 -128.001c12.667 -22 31.167 -39 55.5 -51s51.833 -18 82.5 -18
c58.667 0 104.334 22.667 137.001 68c22 32.667 33 80.334 33 143.001v281h74z" />
    <glyph glyph-name="v" unicode="v" horiz-adv-x="554" 
d="M238 0l-230 547h75l192 -460l196 460h75l-230 -547h-78z" />
    <glyph glyph-name="w" unicode="w" horiz-adv-x="831" 
d="M216 0l-209 547h74l174 -458l129 391h61l129 -391l178 458h72l-212 -547h-79l-119 363l-118 -363h-80z" />
    <glyph glyph-name="x" unicode="x" horiz-adv-x="480" 
d="M8 0l190 279l-190 268h84l148 -211l147 211h85l-191 -268l191 -279h-85l-147 219l-148 -219h-84z" />
    <glyph glyph-name="y" unicode="y" horiz-adv-x="536" 
d="M132 -192l89 210l-212 529h81l173 -436l185 436h79l-316 -739h-79z" />
    <glyph glyph-name="z" unicode="z" horiz-adv-x="425" 
d="M10 0v67l302 413h-292v67h376v-63l-299 -417h318v-67h-405z" />
    <glyph glyph-name="braceleft" unicode="{" horiz-adv-x="351" 
d="M193 601v-169.998c0 -34.667 -5.16699 -60.5 -15.5 -77.5s-28.833 -30.5 -55.5 -40.5c-8 -2.66699 -14 -5 -18 -7c10.667 -4 16.667 -6 18 -6c27.333 -10.667 46 -24.334 56 -41.001s15 -42.334 15 -77.001v-170c0 -25.333 4.5 -42.666 13.5 -51.999
s26.833 -15.333 53.5 -18l11 -1v-67c-33.333 0.666992 -56.833 2.33398 -70.5 5.00098s-26.5 8 -38.5 16c-30.667 20 -46 59.333 -46 118v170c0 30.667 -5 51.667 -15 63s-31.333 20 -64 26v69c32.667 5.33301 54 13.666 64 24.999s15 32.666 15 63.999v170
c0 58.667 15.333 98 46 118c12 8 24.667 13.167 38 15.5s37 4.16602 71 5.49902v-67c-30 -3.33301 -48.333 -6.66602 -55 -9.99902c-15.333 -8 -23 -28.333 -23 -61z" />
    <glyph glyph-name="bar" unicode="|" horiz-adv-x="672" 
d="M368 739v-739h-64v739h64z" />
    <glyph glyph-name="braceright" unicode="}" horiz-adv-x="351" 
d="M116 12l0.000976562 169.991c0 34.667 5 60.334 15 77.001s28.667 30.334 56 41.001c1.33301 0 7.33301 2 18 6c-4 2 -10 4.33301 -18 7c-27.333 10.667 -46 24.334 -56 41.001s-15 42.334 -15 77.001v170c0 24.667 -4.66699 42.667 -14 54
c-6.66699 8 -24.334 13.333 -53.001 16l-11 1v67c38.667 -1.33301 66.167 -4.16602 82.5 -8.49902s30.833 -13.166 43.5 -26.499c19.333 -20.667 29 -55.334 29 -104.001v-170c0 -31.333 4.83301 -52.666 14.5 -63.999s30.167 -19.666 61.5 -24.999v-69
c-31.333 -5.33301 -51.833 -13.666 -61.5 -24.999s-14.5 -32.666 -14.5 -63.999v-170c0 -52 -11.333 -88.333 -34 -109c-12.667 -11.333 -27 -19 -43 -23s-42 -6.33301 -78 -7v67l11 1c30 2.66699 48.333 9 55 19c8 11.333 12 28.333 12 51z" />
    <glyph glyph-name="asciitilde" unicode="~" horiz-adv-x="606" 
d="M511 390l43.9961 -47c-17.333 -34 -38.666 -61.167 -63.999 -81.5s-50.666 -30.5 -75.999 -30.5c-22 0 -53 8.66699 -93 26l-55 22c-33.333 14 -57.666 21 -72.999 21c-26 0 -48 -11.667 -66 -35c-8 -11.333 -19.667 -29.666 -35 -54.999l-42 47
c24 43.333 46.833 74.166 68.5 92.499s46.5 27.5 74.5 27.5c22 0 47.667 -6.33301 77 -19l65 -27c36.667 -15.333 63.334 -23 80.001 -23c31.333 0 63 27.333 95 82z" />
    <glyph glyph-name="afii57799" unicode="&#x5b0;" 
d="M0 -180c10.667 0 20 -4 28 -12s12 -17.333 12 -28s-4 -20 -12 -28s-17.333 -12 -28 -12s-20 4 -28 12s-12 17.333 -12 28s4 20 12 28s17.333 12 28 12zM0 -60c10.667 0 20 -4 28 -12s12 -17.333 12 -28s-4 -20 -12 -28s-17.333 -12 -28 -12s-20 4 -28 12
s-12 17.333 -12 28s4 20 12 28s17.333 12 28 12z" />
    <glyph glyph-name="afii57801" unicode="&#x5b1;" 
d="M-70 -180c10.667 0 20 -4 28 -12s12 -17.333 12 -28s-4 -20 -12 -28s-17.333 -12 -28 -12s-20 4 -28 12s-12 17.333 -12 28s4 20 12 28s17.333 12 28 12zM-130 -60c10.667 0 20 -4 28 -12s12 -17.333 12 -28s-4 -20 -12 -28s-17.333 -12 -28 -12s-20 4 -28 12
s-12 17.333 -12 28s4 20 12 28s17.333 12 28 12zM-10 -60c10.667 0 20 -4 28 -12s12 -17.333 12 -28s-4 -20 -12 -28s-17.333 -12 -28 -12s-20 4 -28 12s-12 17.333 -12 28s4 20 12 28s17.333 12 28 12zM130 -180c10.667 0 20 -4 28 -12s12 -17.333 12 -28s-4 -20 -12 -28
s-17.333 -12 -28 -12s-20 4 -28 12s-12 17.333 -12 28s4 20 12 28s17.333 12 28 12zM130 -60c10.667 0 20 -4 28 -12s12 -17.333 12 -28s-4 -20 -12 -28s-17.333 -12 -28 -12s-20 4 -28 12s-12 17.333 -12 28s4 20 12 28s17.333 12 28 12z" />
    <glyph glyph-name="afii57800" unicode="&#x5b2;" 
d="M-170 -60h200v-60h-200v60zM130 -60c10.667 0 20 -4 28 -12s12 -17.333 12 -28s-4 -20 -12 -28s-17.333 -12 -28 -12s-20 4 -28 12s-12 17.333 -12 28s4 20 12 28s17.333 12 28 12zM130 -180c10.667 0 20 -4 28 -12s12 -17.333 12 -28s-4 -20 -12 -28
s-17.333 -12 -28 -12s-20 4 -28 12s-12 17.333 -12 28s4 20 12 28s17.333 12 28 12z" />
    <glyph glyph-name="afii57802" unicode="&#x5b3;" 
d="M-170 -60h200v-60h-70v-105h-60v105h-70v60zM130 -60c10.667 0 20 -4 28 -12s12 -17.333 12 -28s-4 -20 -12 -28s-17.333 -12 -28 -12s-20 4 -28 12s-12 17.333 -12 28s4 20 12 28s17.333 12 28 12zM130 -180c10.667 0 20 -4 28 -12s12 -17.333 12 -28s-4 -20 -12 -28
s-17.333 -12 -28 -12s-20 4 -28 12s-12 17.333 -12 28s4 20 12 28s17.333 12 28 12z" />
    <glyph glyph-name="afii57793" unicode="&#x5b4;" 
d="M0 -60c10.667 0 20 -4 28 -12s12 -17.333 12 -28s-4 -20 -12 -28s-17.333 -12 -28 -12s-20 4 -28 12s-12 17.333 -12 28s4 20 12 28s17.333 12 28 12z" />
    <glyph glyph-name="afii57794" unicode="&#x5b5;" 
d="M-60 -60c10.667 0 20 -4 28 -12s12 -17.333 12 -28s-4 -20 -12 -28s-17.333 -12 -28 -12s-20 4 -28 12s-12 17.333 -12 28s4 20 12 28s17.333 12 28 12zM60 -60c10.667 0 20 -4 28 -12s12 -17.333 12 -28s-4 -20 -12 -28s-17.333 -12 -28 -12s-20 4 -28 12
s-12 17.333 -12 28s4 20 12 28s17.333 12 28 12z" />
    <glyph glyph-name="afii57795" unicode="&#x5b6;" 
d="M0 -180c10.667 0 20 -4 28 -12s12 -17.333 12 -28s-4 -20 -12 -28s-17.333 -12 -28 -12s-20 4 -28 12s-12 17.333 -12 28s4 20 12 28s17.333 12 28 12zM-60 -60c10.667 0 20 -4 28 -12s12 -17.333 12 -28s-4 -20 -12 -28s-17.333 -12 -28 -12s-20 4 -28 12
s-12 17.333 -12 28s4 20 12 28s17.333 12 28 12zM60 -60c10.667 0 20 -4 28 -12s12 -17.333 12 -28s-4 -20 -12 -28s-17.333 -12 -28 -12s-20 4 -28 12s-12 17.333 -12 28s4 20 12 28s17.333 12 28 12z" />
    <glyph glyph-name="afii57798" unicode="&#x5b7;" 
d="M-100 -60h200v-60h-200v60z" />
    <glyph glyph-name="afii57797" unicode="&#x5b8;" 
d="M-100 -60h200v-60h-70v-105h-60v105h-70v60z" />
    <glyph glyph-name="afii57806" unicode="&#x5b9;" 
d="M0 740c10.667 0 20 -4 28 -12s12 -17.333 12 -28s-4 -20 -12 -28s-17.333 -12 -28 -12s-20 4 -28 12s-12 17.333 -12 28s4 20 12 28s17.333 12 28 12z" />
    <glyph glyph-name="afii57796" unicode="&#x5bb;" 
d="M120 -180c10.667 0 20 -4 28 -12s12 -17.333 12 -28s-4 -20 -12 -28s-17.333 -12 -28 -12s-20 4 -28 12s-12 17.333 -12 28s4 20 12 28s17.333 12 28 12zM0 -120c10.667 0 20 -4 28 -12s12 -17.333 12 -28s-4 -20 -12 -28s-17.333 -12 -28 -12s-20 4 -28 12
s-12 17.333 -12 28s4 20 12 28s17.333 12 28 12zM-120 -60c10.667 0 20 -4 28 -12s12 -17.333 12 -28s-4 -20 -12 -28s-17.333 -12 -28 -12s-20 4 -28 12s-12 17.333 -12 28s4 20 12 28s17.333 12 28 12z" />
    <glyph glyph-name="afii57807" unicode="&#x5bc;" 
d="M0 339c11.333 0 20.833 -3.83301 28.5 -11.5s11.5 -17.167 11.5 -28.5s-4 -20.833 -12 -28.5s-17.333 -11.5 -28 -11.5s-20 3.83301 -28 11.5s-12 17.167 -12 28.5s3.83301 20.833 11.5 28.5s17.167 11.5 28.5 11.5z" />
    <glyph glyph-name="afii57839" unicode="&#x5bd;" 
d="M-30 -60h60v-204h-60v204z" />
    <glyph glyph-name="afii57645" unicode="&#x5be;" horiz-adv-x="427" 
d="M42 600h350v-80h-350v80z" />
    <glyph glyph-name="afii57841" unicode="&#x5bf;" 
d="M-100 710h200v-60h-200v60z" />
    <glyph glyph-name="afii57842" unicode="&#x5c0;" horiz-adv-x="188" 
d="M52 700h84v-800h-84v800z" />
    <glyph glyph-name="afii57804" unicode="&#x5c1;" 
d="M647 706c11.333 0 20.833 -4 28.5 -12s11.5 -17.333 11.5 -28s-3.83301 -20 -11.5 -28s-17.167 -12 -28.5 -12s-20.833 4 -28.5 12s-11.5 17.333 -11.5 28s3.83301 20 11.5 28s17.167 12 28.5 12z" />
    <glyph glyph-name="afii57803" unicode="&#x5c2;" 
d="M106 706c10.667 0 20 -4 28 -12s12 -17.333 12 -28s-4 -20 -12 -28s-17.333 -12 -28 -12s-20 4 -28 12s-12 17.333 -12 28s4 20 12 28s17.333 12 28 12z" />
    <glyph glyph-name="afii57658" unicode="&#x5c3;" horiz-adv-x="168" 
d="M83 404c12.667 0 23.334 -4.33301 32.001 -13s13 -19.334 13 -32.001s-4.33301 -23.334 -13 -32.001s-19.334 -13 -32.001 -13s-23.334 4.33301 -32.001 13s-13 19.334 -13 32.001s4.33301 23.334 13 32.001s19.334 13 32.001 13zM83 90
c12.667 0 23.334 -4.33301 32.001 -13s13 -19.334 13 -32.001s-4.33301 -23.334 -13 -32.001s-19.334 -13 -32.001 -13s-23.334 4.33301 -32.001 13s-13 19.334 -13 32.001s4.33301 23.334 13 32.001s19.334 13 32.001 13z" />
    <glyph glyph-name="uni05C4" unicode="&#x5c4;" 
d="M0 740c10.667 0 20 -4 28 -12s12 -17.333 12 -28s-4 -20 -12 -28s-17.333 -12 -28 -12s-20 4 -28 12s-12 17.333 -12 28s4 20 12 28s17.333 12 28 12z" />
    <glyph glyph-name="afii57664" unicode="&#x5d0;" horiz-adv-x="529" 
d="M470 547c0 -36 -0.331055 -63.666 -0.998047 -82.999s-2.33398 -40.333 -5.00098 -63s-6.5 -40 -11.5 -52s-12.167 -24.667 -21.5 -38s-20.833 -24.833 -34.5 -34.5s-30.5 -19.834 -50.5 -30.501l141 -246h-88l-211 368c-42.667 0.666992 -60.667 -25.333 -54 -78
l28 -290h-117v80h32l-20 229c-2.66699 32 4.83301 59.833 22.5 83.5s40.5 38.834 68.5 45.501l-93 162h88l166 -289c17.333 7.33301 31.5 16 42.5 26s19.167 21.167 24.5 33.5s9.16602 26.166 11.499 41.499s3.33301 31.833 3 49.5s-0.5 37.167 -0.5 58.5h-45v80h72
c16 0 28.833 -4.83301 38.5 -14.5s14.5 -22.5 14.5 -38.5z" />
    <glyph glyph-name="afii57665" unicode="&#x5d1;" horiz-adv-x="557" 
d="M42 600h375c16 0 28.833 -4.83301 38.5 -14.5s14.5 -22.5 14.5 -38.5v-467h45v-80h-473v80h344v440h-344v80z" />
    <glyph glyph-name="afii57666" unicode="&#x5d2;" horiz-adv-x="338" 
d="M182 186l-76 -186h-84l80 197h78l-53 323h-54v80h85c14.667 0 26.667 -5 36 -15s15 -22.667 17 -38l85 -547h-62z" />
    <glyph glyph-name="afii57667" unicode="&#x5d3;" horiz-adv-x="503" 
d="M416 600c16 0 28.833 -4.83301 38.5 -14.5s14.5 -22.5 14.5 -38.5v-27h-61v-520h-84v520h-318v80h410z" />
    <glyph glyph-name="afii57668" unicode="&#x5d4;" horiz-adv-x="537" 
d="M484 0h-84v520h-348v80h379c16 0 28.833 -4.83301 38.5 -14.5s14.5 -22.5 14.5 -38.5v-547zM52 345h84v-345h-84v345z" />
    <glyph glyph-name="afii57669" unicode="&#x5d5;" horiz-adv-x="228" 
d="M175 0h-84v520h-54v80h85c16 0 28.833 -4.83301 38.5 -14.5s14.5 -22.5 14.5 -38.5v-547z" />
    <glyph glyph-name="afii57670" unicode="&#x5d6;" horiz-adv-x="272" 
d="M241 520h-51l-32 -115v-405h-84v405l32 115h-66v80h148c16 0 28.833 -4.83301 38.5 -14.5s14.5 -22.5 14.5 -38.5v-27z" />
    <glyph glyph-name="afii57671" unicode="&#x5d7;" horiz-adv-x="544" 
d="M491 0h-84v520h-260v-520h-84v405l32 115h-50v80h393c16 0 28.833 -4.83301 38.5 -14.5s14.5 -22.5 14.5 -38.5v-547z" />
    <glyph glyph-name="afii57672" unicode="&#x5d8;" horiz-adv-x="540" 
d="M150 80h262v285c0 78 -26.667 124.667 -80 140l-51 -160h-73l77 255c140.667 -10.667 211 -94 211 -250v-350h-430v405l32 115h-54v80h99c15.333 0 28 -4.83301 38 -14.5s15 -22.5 15 -38.5v-27h-14l-32 -115v-325z" />
    <glyph glyph-name="afii57673" unicode="&#x5d9;" horiz-adv-x="220" 
d="M176 336h-84v184h-54v80h85c16 0 28.833 -4.83301 38.5 -14.5s14.5 -22.5 14.5 -38.5v-211z" />
    <glyph glyph-name="afii57674" unicode="&#x5da;" horiz-adv-x="488" 
d="M435 -240h-84v760h-348v80h379c16 0 28.833 -4.83301 38.5 -14.5s14.5 -22.5 14.5 -38.5v-787z" />
    <glyph glyph-name="afii57675" unicode="&#x5db;" horiz-adv-x="518" 
d="M468 547v-407c0 -42 -12.167 -75.833 -36.5 -101.5s-58.833 -38.5 -103.5 -38.5h-286v80h290c15.333 0 27.833 4.66699 37.5 14s14.5 22 14.5 38v388h-342v80h373c16 0 28.833 -4.83301 38.5 -14.5s14.5 -22.5 14.5 -38.5z" />
    <glyph glyph-name="afii57676" unicode="&#x5dc;" horiz-adv-x="483" 
d="M16 712h84v-112h283c16 0 28.833 -4.83301 38.5 -14.5s14.5 -22.5 14.5 -38.5v-343c0 -58.667 -21 -109 -63 -151s-92.333 -63 -151 -63v84c36 0 66.667 12.667 92 38s38 56 38 92v316h-336v192z" />
    <glyph glyph-name="afii57677" unicode="&#x5dd;" horiz-adv-x="544" 
d="M491 0h-428v405l32 115h-50v80h393c16 0 28.833 -4.83301 38.5 -14.5s14.5 -22.5 14.5 -38.5v-547zM407 80v440h-260v-440h260z" />
    <glyph glyph-name="afii57678" unicode="&#x5de;" horiz-adv-x="550" 
d="M160 0h-84v520h-36v80h67c26.667 0 43.667 -12 51 -36c38 30.667 82 46 132 46c58.667 0 109 -21 151 -63s63 -92.333 63 -151v-396h-254v80h170v316c0 36 -12.667 66.667 -38 92s-56 38 -92 38s-66.667 -12.667 -92 -38s-38 -56 -38 -92v-396z" />
    <glyph glyph-name="afii57679" unicode="&#x5df;" horiz-adv-x="230" 
d="M40 600h97c15.333 0 28 -4.83301 38 -14.5s15 -22.5 15 -38.5v-27l-32 -115v-645h-84v645l32 115h-66v80z" />
    <glyph glyph-name="afii57680" unicode="&#x5e0;" horiz-adv-x="263" 
d="M39 0v80l87 1v439h-66v80h97c16 0 28.833 -4.83301 38.5 -14.5s14.5 -22.5 14.5 -38.5v-547h-171z" />
    <glyph glyph-name="afii57681" unicode="&#x5e1;" horiz-adv-x="536" 
d="M489 204c0 -58.667 -20.833 -109 -62.5 -151s-92.167 -63 -151.5 -63s-109.833 21 -151.5 63s-62.5 92.333 -62.5 151v201l32 115h-50v80h393c16 0 28.833 -4.83301 38.5 -14.5s14.5 -22.5 14.5 -38.5v-343zM405 204v316h-260v-316c0 -36 12.667 -66.667 38 -92
s56 -38 92 -38s66.667 12.667 92 38s38 56 38 92z" />
    <glyph glyph-name="afii57682" unicode="&#x5e2;" horiz-adv-x="520" 
d="M116 80v440h-54v80h85c16 0 28.833 -4.83301 38.5 -14.5s14.5 -22.5 14.5 -38.5v-467h134c15.333 0 27.833 4.66699 37.5 14s14.5 22 14.5 38v388h-54v80h85c16 0 28.833 -4.83301 38.5 -14.5s14.5 -22.5 14.5 -38.5v-407c0 -42 -12.167 -75.833 -36.5 -101.5
s-58.833 -38.5 -103.5 -38.5h-292v80h78z" />
    <glyph glyph-name="afii57683" unicode="&#x5e3;" horiz-adv-x="529" 
d="M248 260h-200v145l32 115h-50v80h393c16 0 28.833 -4.83301 38.5 -14.5s14.5 -22.5 14.5 -38.5v-787h-84v760h-260v-180h116v-80z" />
    <glyph glyph-name="afii57684" unicode="&#x5e4;" horiz-adv-x="544" 
d="M150 520v-180h116v-80h-200v145l32 115h-50v80h393c16 0 28.833 -4.83301 38.5 -14.5s14.5 -22.5 14.5 -38.5v-407c0 -42 -12.167 -75.833 -36.5 -101.5s-58.833 -38.5 -103.5 -38.5h-306v80h310c15.333 0 27.833 4.66699 37.5 14s14.5 22 14.5 38v388h-260z" />
    <glyph glyph-name="afii57685" unicode="&#x5e5;" horiz-adv-x="487" 
d="M175 346h68c36 0 66.667 12.667 92 38s38 56 38 92v44h-46v80h77c16 0 28.833 -4.83301 38.5 -14.5s14.5 -22.5 14.5 -38.5v-71c0 -58.667 -20.833 -109 -62.5 -151s-92.167 -63 -151.5 -63h-68v-502h-84v760h-54v80h85c16 0 28.833 -4.83301 38.5 -14.5
s14.5 -22.5 14.5 -38.5v-201z" />
    <glyph glyph-name="afii57686" unicode="&#x5e6;" horiz-adv-x="534" 
d="M261 346l10 0.000976562c36 0 66.667 12.667 92 38s38 56 38 92v44h-46v80h77c16 0 28.833 -4.83301 38.5 -14.5s14.5 -22.5 14.5 -38.5v-71c0 -54.667 -17 -100.834 -51 -138.501s-70.667 -60.5 -110 -68.5l155 -189v-80h-427v80h325l-280 342v98h-54v80h85
c16 0 28.833 -4.83301 38.5 -14.5s14.5 -22.5 14.5 -38.5v-103z" />
    <glyph glyph-name="afii57687" unicode="&#x5e7;" horiz-adv-x="519" 
d="M258 -10v84c36 0 66.667 12.667 92 38s38 56 38 92v316h-336v80h367c16 0 28.833 -4.83301 38.5 -14.5s14.5 -22.5 14.5 -38.5v-343c0 -58.667 -21 -109 -63 -151s-92.333 -63 -151 -63zM52 345h84v-585h-84v585z" />
    <glyph glyph-name="afii57688" unicode="&#x5e8;" horiz-adv-x="455" 
d="M266 520h-260v80h256c44.667 0 79.167 -12.833 103.5 -38.5s36.5 -59.5 36.5 -101.5v-460h-84v468c0 16 -4.66699 28.667 -14 38s-22 14 -38 14z" />
    <glyph glyph-name="afii57689" unicode="&#x5e9;" horiz-adv-x="740" 
d="M66 0v405l32 115h-54v80h92c16 0 28.833 -4.83301 38.5 -14.5s14.5 -22.5 14.5 -38.5v-27h-7l-32 -115v-325h186v440h-54v80h85c16 0 28.833 -4.83301 38.5 -14.5s14.5 -22.5 14.5 -38.5v-467h134c15.333 0 27.833 4.66699 37.5 14s14.5 22 14.5 38v388h-54v80h85
c16 0 28.833 -4.83301 38.5 -14.5s14.5 -22.5 14.5 -38.5v-407c0 -42 -12.167 -75.833 -36.5 -101.5s-58.833 -38.5 -103.5 -38.5h-484z" />
    <glyph glyph-name="afii57690" unicode="&#x5ea;" horiz-adv-x="560" 
d="M163 0h-124v80h40v325l32 115h-50v80h393c16 0 28.833 -4.83301 38.5 -14.5s14.5 -22.5 14.5 -38.5v-547h-84v520h-260v-520z" />
    <glyph glyph-name="afii57716" unicode="&#x5f0;" horiz-adv-x="456" 
d="M403 0h-84v520h-54v80h85c16 0 28.833 -4.83301 38.5 -14.5s14.5 -22.5 14.5 -38.5v-547zM175 0h-84v520h-54v80h85c16 0 28.833 -4.83301 38.5 -14.5s14.5 -22.5 14.5 -38.5v-547z" />
    <glyph glyph-name="afii57717" unicode="&#x5f1;" horiz-adv-x="448" 
d="M176 336h-84v184h-54v80h85c16 0 28.833 -4.83301 38.5 -14.5s14.5 -22.5 14.5 -38.5v-211zM395 0h-84v520h-54v80h85c16 0 28.833 -4.83301 38.5 -14.5s14.5 -22.5 14.5 -38.5v-547z" />
    <glyph glyph-name="afii57718" unicode="&#x5f2;" horiz-adv-x="440" 
d="M358 336h-84v184h-54v80h85c16 0 28.833 -4.83301 38.5 -14.5s14.5 -22.5 14.5 -38.5v-211zM138 336h-84v184h-54v80h85c16 0 28.833 -4.83301 38.5 -14.5s14.5 -22.5 14.5 -38.5v-211z" />
    <glyph glyph-name="uni05F3" unicode="&#x5f3;" horiz-adv-x="161" 
d="M45 600h86l-48 -182h-38v182z" />
    <glyph glyph-name="uni05F4" unicode="&#x5f4;" horiz-adv-x="287" 
d="M171 600h86l-48 -182h-38v182zM45 600h86l-48 -182h-38v182z" />
    <glyph glyph-name="afii61664" unicode="&#x200c;" 
 />
    <glyph glyph-name="afii301" unicode="&#x200d;" 
 />
    <glyph glyph-name="afii299" unicode="&#x200e;" 
 />
    <glyph glyph-name="afii300" unicode="&#x200f;" 
 />
    <glyph glyph-name="afii57636" unicode="&#x20aa;" horiz-adv-x="780" 
d="M332 80v225l32 115h-84l-32 -115v-305h328c44.667 -0 79.167 12.833 103.5 38.5s36.5 59.5 36.5 101.5v407c0 16 -4.83301 28.833 -14.5 38.5s-22.5 14.5 -38.5 14.5h-51v-80h20v-388c0 -16 -4.83301 -28.667 -14.5 -38s-22.167 -14 -37.5 -14h-248zM531 180h-84v340
h-300v-520h-84v405l32 115h-50v80h433c16 0 28.833 -4.83301 38.5 -14.5s14.5 -22.5 14.5 -38.5v-367z" />
    <glyph glyph-name="SF110000" unicode="&#x2502;" horiz-adv-x="574" 
d="M329 900v-1200h-84v1200h84z" />
    <glyph glyph-name="uni25CC" unicode="&#x25cc;" horiz-adv-x="615" 
d="M77 233c7.33301 0 13.833 -2.83301 19.5 -8.5s8.5 -12.167 8.5 -19.5s-2.83301 -13.833 -8.5 -19.5s-12.167 -8.5 -19.5 -8.5c-8 0 -14.667 2.83301 -20 8.5s-8 12.167 -8 19.5s2.66699 13.833 8 19.5s12 8.5 20 8.5zM211 98c8 0 14.667 -2.66699 20 -8s8 -12 8 -20
c0 -7.33301 -2.66699 -13.666 -8 -18.999s-12 -8 -20 -8c-7.33301 0 -13.833 2.66699 -19.5 8s-8.5 11.666 -8.5 18.999c0 8 2.83301 14.667 8.5 20s12.167 8 19.5 8zM401 98c8 0 14.667 -2.66699 20 -8s8 -12 8 -20c0 -7.33301 -2.66699 -13.666 -8 -18.999s-12 -8 -20 -8
c-7.33301 0 -13.666 2.66699 -18.999 8s-8 11.666 -8 18.999c0 8 2.66699 14.667 8 20s11.666 8 18.999 8zM536 233c7.33301 0 13.833 -2.83301 19.5 -8.5s8.5 -12.167 8.5 -19.5s-2.83301 -13.833 -8.5 -19.5s-12.167 -8.5 -19.5 -8.5s-13.833 2.83301 -19.5 8.5
s-8.5 12.167 -8.5 19.5s2.83301 13.833 8.5 19.5s12.167 8.5 19.5 8.5zM536 423c7.33301 0 13.833 -2.83301 19.5 -8.5s8.5 -12.167 8.5 -19.5s-2.83301 -13.833 -8.5 -19.5s-12.167 -8.5 -19.5 -8.5s-13.833 2.83301 -19.5 8.5s-8.5 12.167 -8.5 19.5
s2.83301 13.833 8.5 19.5s12.167 8.5 19.5 8.5zM401 557c8 0 14.667 -2.66699 20 -8s8 -11.666 8 -18.999c0 -8 -2.66699 -14.667 -8 -20s-12 -8 -20 -8c-7.33301 0 -13.666 2.66699 -18.999 8s-8 12 -8 20c0 7.33301 2.66699 13.666 8 18.999s11.666 8 18.999 8zM211 557
c8 0 14.667 -2.66699 20 -8s8 -11.666 8 -18.999c0 -8 -2.66699 -14.667 -8 -20s-12 -8 -20 -8c-7.33301 0 -13.833 2.66699 -19.5 8s-8.5 12 -8.5 20c0 7.33301 2.83301 13.666 8.5 18.999s12.167 8 19.5 8zM77 423c7.33301 0 13.833 -2.83301 19.5 -8.5
s8.5 -12.167 8.5 -19.5s-2.83301 -13.833 -8.5 -19.5s-12.167 -8.5 -19.5 -8.5c-8 0 -14.667 2.83301 -20 8.5s-8 12.167 -8 19.5s2.66699 13.833 8 19.5s12 8.5 20 8.5zM58 328c7.33301 0 13.833 -2.83301 19.5 -8.5s8.5 -12.167 8.5 -19.5s-2.83301 -13.833 -8.5 -19.5
s-12.167 -8.5 -19.5 -8.5s-13.833 2.83301 -19.5 8.5s-8.5 12.167 -8.5 19.5s2.83301 13.833 8.5 19.5s12.167 8.5 19.5 8.5zM131 504c7.33301 0 13.833 -2.83301 19.5 -8.5s8.5 -12.167 8.5 -19.5c0 -8 -2.83301 -14.667 -8.5 -20s-12.167 -8 -19.5 -8
c-8 0 -14.667 2.66699 -20 8s-8 12 -8 20c0 7.33301 2.66699 13.833 8 19.5s12 8.5 20 8.5zM131 152c7.33301 0 13.833 -2.66699 19.5 -8s8.5 -12 8.5 -20c0 -7.33301 -2.83301 -13.833 -8.5 -19.5s-12.167 -8.5 -19.5 -8.5c-8 0 -14.667 2.83301 -20 8.5s-8 12.167 -8 19.5
c0 8 2.66699 14.667 8 20s12 8 20 8zM482 152c8 0 14.667 -2.66699 20 -8s8 -12 8 -20c0 -7.33301 -2.66699 -13.833 -8 -19.5s-12 -8.5 -20 -8.5c-7.33301 0 -13.833 2.83301 -19.5 8.5s-8.5 12.167 -8.5 19.5c0 8 2.83301 14.667 8.5 20s12.167 8 19.5 8zM482 504
c8 0 14.667 -2.83301 20 -8.5s8 -12.167 8 -19.5c0 -8 -2.66699 -14.667 -8 -20s-12 -8 -20 -8c-7.33301 0 -13.833 2.66699 -19.5 8s-8.5 12 -8.5 20c0 7.33301 2.83301 13.833 8.5 19.5s12.167 8.5 19.5 8.5zM306 576c8 0 14.667 -2.66699 20 -8s8 -12 8 -20
c0 -7.33301 -2.66699 -13.666 -8 -18.999s-12 -8 -20 -8c-7.33301 0 -13.833 2.66699 -19.5 8s-8.5 11.666 -8.5 18.999c0 8 2.83301 14.667 8.5 20s12.167 8 19.5 8zM306 79c8 0 14.667 -2.66699 20 -8s8 -11.666 8 -18.999c0 -8 -2.66699 -14.667 -8 -20s-12 -8 -20 -8
c-7.33301 0 -13.833 2.66699 -19.5 8s-8.5 12 -8.5 20c0 7.33301 2.83301 13.666 8.5 18.999s12.167 8 19.5 8zM555 328c7.33301 0 13.833 -2.83301 19.5 -8.5s8.5 -12.167 8.5 -19.5s-2.83301 -13.833 -8.5 -19.5s-12.167 -8.5 -19.5 -8.5c-8 0 -14.667 2.83301 -20 8.5
s-8 12.167 -8 19.5s2.66699 13.833 8 19.5s12 8.5 20 8.5z" />
    <glyph glyph-name="uniE801" unicode="&#xe801;" horiz-adv-x="228" 
d="M13 740c11.333 0 20.833 -4 28.5 -12s11.5 -17.333 11.5 -28s-3.83301 -20 -11.5 -28s-17.167 -12 -28.5 -12s-20.833 4 -28.5 12s-11.5 17.333 -11.5 28s3.83301 20 11.5 28s17.167 12 28.5 12zM175 0h-84v520h-54v80h85c16 0 28.833 -4.83301 38.5 -14.5
s14.5 -22.5 14.5 -38.5v-547z" />
    <glyph glyph-name="uniE802" unicode="&#xe802;" horiz-adv-x="488" 
d="M240 229c10.667 0 20 -3.83301 28 -11.5s12 -17.167 12 -28.5s-4 -20.833 -12 -28.5s-17.333 -11.5 -28 -11.5s-20 3.83301 -28 11.5s-12 17.167 -12 28.5s4 20.833 12 28.5s17.333 11.5 28 11.5zM240 349c10.667 0 20 -3.83301 28 -11.5s12 -17.167 12 -28.5
s-4 -20.833 -12 -28.5s-17.333 -11.5 -28 -11.5s-20 3.83301 -28 11.5s-12 17.167 -12 28.5s4 20.833 12 28.5s17.333 11.5 28 11.5zM435 -240h-84v760h-348v80h379c16 0 28.833 -4.83301 38.5 -14.5s14.5 -22.5 14.5 -38.5v-787z" />
    <glyph glyph-name="uniE803" unicode="&#xe803;" horiz-adv-x="488" 
d="M99 361h200v-60h-70v-105h-60v105h-70v60zM435 -240h-84v760h-348v80h379c16 0 28.833 -4.83301 38.5 -14.5s14.5 -22.5 14.5 -38.5v-787z" />
    <glyph glyph-name="uniFB1D" unicode="&#xfb1d;" horiz-adv-x="220" 
d="M132 285c10.667 0 20 -3.83301 28 -11.5s12 -17.167 12 -28.5s-4 -20.833 -12 -28.5s-17.333 -11.5 -28 -11.5s-20 3.83301 -28 11.5s-12 17.167 -12 28.5s4 20.833 12 28.5s17.333 11.5 28 11.5zM176 336h-84v184h-54v80h85c16 0 28.833 -4.83301 38.5 -14.5
s14.5 -22.5 14.5 -38.5v-211z" />
    <glyph glyph-name="uniFB1E" unicode="&#xfb1e;" 
d="M49 740h64c0 -29.333 -6.83301 -51.666 -20.5 -66.999s-37.834 -23 -72.501 -23h-34c-37.333 0 -63.166 7.66699 -77.499 23s-21.5 37.666 -21.5 66.999h64c0 -8 3 -15 9 -21s14.667 -9 26 -9h34c8 0 14.833 3 20.5 9s8.5 13 8.5 21z" />
    <glyph glyph-name="uniFB20" unicode="&#xfb20;" horiz-adv-x="520" 
d="M116 80v440h-54v80h85c16 0 28.833 -4.83301 38.5 -14.5s14.5 -22.5 14.5 -38.5v-467h134c15.333 0 27.833 4.66699 37.5 14s14.5 22 14.5 38v388h-54v80h85c16 0 28.833 -4.83301 38.5 -14.5s14.5 -22.5 14.5 -38.5v-407c0 -42 -12.167 -75.833 -36.5 -101.5
s-58.833 -38.5 -103.5 -38.5h-292v80h78z" />
    <glyph glyph-name="uniFB29" unicode="&#xfb29;" horiz-adv-x="606" 
d="M265 341v216h77v-216h213v-74h-504v74h214z" />
    <glyph glyph-name="afii57694" unicode="&#xfb2a;" horiz-adv-x="740" 
d="M647 706c11.333 0 20.833 -4 28.5 -12s11.5 -17.333 11.5 -28s-3.83301 -20 -11.5 -28s-17.167 -12 -28.5 -12s-20.833 4 -28.5 12s-11.5 17.333 -11.5 28s3.83301 20 11.5 28s17.167 12 28.5 12zM66 0v405l32 115h-54v80h92c16 0 28.833 -4.83301 38.5 -14.5
s14.5 -22.5 14.5 -38.5v-27h-7l-32 -115v-325h186v440h-54v80h85c16 0 28.833 -4.83301 38.5 -14.5s14.5 -22.5 14.5 -38.5v-467h134c15.333 0 27.833 4.66699 37.5 14s14.5 22 14.5 38v388h-54v80h85c16 0 28.833 -4.83301 38.5 -14.5s14.5 -22.5 14.5 -38.5v-407
c0 -42 -12.167 -75.833 -36.5 -101.5s-58.833 -38.5 -103.5 -38.5h-484z" />
    <glyph glyph-name="afii57695" unicode="&#xfb2b;" horiz-adv-x="740" 
d="M106 706c10.667 0 20 -4 28 -12s12 -17.333 12 -28s-4 -20 -12 -28s-17.333 -12 -28 -12s-20 4 -28 12s-12 17.333 -12 28s4 20 12 28s17.333 12 28 12zM66 0v405l32 115h-54v80h92c16 0 28.833 -4.83301 38.5 -14.5s14.5 -22.5 14.5 -38.5v-27h-7l-32 -115v-325h186v440
h-54v80h85c16 0 28.833 -4.83301 38.5 -14.5s14.5 -22.5 14.5 -38.5v-467h134c15.333 0 27.833 4.66699 37.5 14s14.5 22 14.5 38v388h-54v80h85c16 0 28.833 -4.83301 38.5 -14.5s14.5 -22.5 14.5 -38.5v-407c0 -42 -12.167 -75.833 -36.5 -101.5
s-58.833 -38.5 -103.5 -38.5h-484z" />
    <glyph glyph-name="uniFB2C" unicode="&#xfb2c;" horiz-adv-x="740" 
d="M647 706c11.333 0 20.833 -4 28.5 -12s11.5 -17.333 11.5 -28s-3.83301 -20 -11.5 -28s-17.167 -12 -28.5 -12s-20.833 4 -28.5 12s-11.5 17.333 -11.5 28s3.83301 20 11.5 28s17.167 12 28.5 12zM472 339c11.333 0 20.833 -3.83301 28.5 -11.5s11.5 -17.167 11.5 -28.5
s-4 -20.833 -12 -28.5s-17.333 -11.5 -28 -11.5s-20 3.83301 -28 11.5s-12 17.167 -12 28.5s3.83301 20.833 11.5 28.5s17.167 11.5 28.5 11.5zM22 0v405l32 115h-54v80h92c16 0 28.833 -4.83301 38.5 -14.5s14.5 -22.5 14.5 -38.5v-27h-7l-32 -115v-325h186v440h-54v80h85
c16 0 28.833 -4.83301 38.5 -14.5s14.5 -22.5 14.5 -38.5v-467h134c15.333 0 27.833 4.66699 37.5 14s14.5 22 14.5 38v388h-54v80h85c16 0 28.833 -4.83301 38.5 -14.5s14.5 -22.5 14.5 -38.5v-407c0 -42.667 -12.167 -76.667 -36.5 -102s-58.833 -38 -103.5 -38h-484z" />
    <glyph glyph-name="uniFB2D" unicode="&#xfb2d;" horiz-adv-x="740" 
d="M106 706c10.667 0 20 -4 28 -12s12 -17.333 12 -28s-4 -20 -12 -28s-17.333 -12 -28 -12s-20 4 -28 12s-12 17.333 -12 28s4 20 12 28s17.333 12 28 12zM472 339c11.333 0 20.833 -3.83301 28.5 -11.5s11.5 -17.167 11.5 -28.5s-4 -20.833 -12 -28.5
s-17.333 -11.5 -28 -11.5s-20 3.83301 -28 11.5s-12 17.167 -12 28.5s3.83301 20.833 11.5 28.5s17.167 11.5 28.5 11.5zM22 0v405l32 115h-54v80h92c16 0 28.833 -4.83301 38.5 -14.5s14.5 -22.5 14.5 -38.5v-27h-7l-32 -115v-325h186v440h-54v80h85
c16 0 28.833 -4.83301 38.5 -14.5s14.5 -22.5 14.5 -38.5v-467h134c15.333 0 27.833 4.66699 37.5 14s14.5 22 14.5 38v388h-54v80h85c16 0 28.833 -4.83301 38.5 -14.5s14.5 -22.5 14.5 -38.5v-407c0 -42.667 -12.167 -76.667 -36.5 -102s-58.833 -38 -103.5 -38h-484z" />
    <glyph glyph-name="uniFB2E" unicode="&#xfb2e;" horiz-adv-x="529" 
d="M155 -60h200v-60h-200v60zM470 547c0 -36 -0.331055 -63.666 -0.998047 -82.999s-2.33398 -40.333 -5.00098 -63s-6.5 -40 -11.5 -52s-12.167 -24.667 -21.5 -38s-20.833 -24.833 -34.5 -34.5s-30.5 -19.834 -50.5 -30.501l141 -246h-88l-211 368
c-42.667 0.666992 -60.667 -25.333 -54 -78l28 -290h-117v80h32l-20 229c-2.66699 32 4.83301 59.833 22.5 83.5s40.5 38.834 68.5 45.501l-93 162h88l166 -289c17.333 7.33301 31.5 16 42.5 26s19.167 21.167 24.5 33.5s9.16602 26.166 11.499 41.499
s3.33301 31.833 3 49.5s-0.5 37.167 -0.5 58.5h-45v80h72c16 0 28.833 -4.83301 38.5 -14.5s14.5 -22.5 14.5 -38.5z" />
    <glyph glyph-name="uniFB2F" unicode="&#xfb2f;" horiz-adv-x="529" 
d="M158 -60h200v-60h-70v-105h-60v105h-70v60zM470 547c0 -36 -0.331055 -63.666 -0.998047 -82.999s-2.33398 -40.333 -5.00098 -63s-6.5 -40 -11.5 -52s-12.167 -24.667 -21.5 -38s-20.833 -24.833 -34.5 -34.5s-30.5 -19.834 -50.5 -30.501l141 -246h-88l-211 368
c-42.667 0.666992 -60.667 -25.333 -54 -78l28 -290h-117v80h32l-20 229c-2.66699 32 4.83301 59.833 22.5 83.5s40.5 38.834 68.5 45.501l-93 162h88l166 -289c17.333 7.33301 31.5 16 42.5 26s19.167 21.167 24.5 33.5s9.16602 26.166 11.499 41.499
s3.33301 31.833 3 49.5s-0.5 37.167 -0.5 58.5h-45v80h72c16 0 28.833 -4.83301 38.5 -14.5s14.5 -22.5 14.5 -38.5z" />
    <glyph glyph-name="uniFB30" unicode="&#xfb30;" horiz-adv-x="529" 
d="M222 198c11.333 0 20.833 -3.83301 28.5 -11.5s11.5 -17.167 11.5 -28.5s-4 -20.833 -12 -28.5s-17.333 -11.5 -28 -11.5s-20 3.83301 -28 11.5s-12 17.167 -12 28.5s3.83301 20.833 11.5 28.5s17.167 11.5 28.5 11.5zM470 547l0.00195312 -1
c0 -35.333 -0.333008 -62.833 -1 -82.5s-2.33398 -40.667 -5.00098 -63s-6.5 -39.5 -11.5 -51.5s-12.167 -24.833 -21.5 -38.5s-20.833 -25.334 -34.5 -35.001s-30.5 -19.834 -50.5 -30.501l141 -246h-88l-211 368c-42.667 0.666992 -60.667 -25.333 -54 -78l28 -290h-117
v80h32l-20 229c-2.66699 32 4.83301 60 22.5 84s40.5 39 68.5 45l-93 162h88l166 -289c17.333 7.33301 31.5 16 42.5 26s19.167 21.167 24.5 33.5s9.16602 26.333 11.499 42s3.33301 32.334 3 50.001s-0.5 36.834 -0.5 57.501h-45v80h72c16 0 28.833 -4.66699 38.5 -14
s14.5 -22 14.5 -38z" />
    <glyph glyph-name="uniFB31" unicode="&#xfb31;" horiz-adv-x="557" 
d="M258 339c11.333 0 20.833 -3.83301 28.5 -11.5s11.5 -17.167 11.5 -28.5s-4 -20.833 -12 -28.5s-17.333 -11.5 -28 -11.5s-20 3.83301 -28 11.5s-12 17.167 -12 28.5s3.83301 20.833 11.5 28.5s17.167 11.5 28.5 11.5zM42 600h375c16 0 28.833 -4.83301 38.5 -14.5
s14.5 -22.5 14.5 -38.5v-467h45v-80h-473v80h344v440h-344v80z" />
    <glyph glyph-name="uniFB32" unicode="&#xfb32;" horiz-adv-x="338" 
d="M93 339c11.333 0 20.833 -3.83301 28.5 -11.5s11.5 -17.167 11.5 -28.5s-3.83301 -20.833 -11.5 -28.5s-17.167 -11.5 -28.5 -11.5s-20.833 3.83301 -28.5 11.5s-11.5 17.167 -11.5 28.5s3.83301 20.833 11.5 28.5s17.167 11.5 28.5 11.5zM182 186l-76 -186h-84l80 197
h78l-53 323h-54v80h85c14.667 0 26.667 -5.16699 36 -15.5s15 -22.833 17 -37.5l85 -547h-62z" />
    <glyph glyph-name="uniFB33" unicode="&#xfb33;" horiz-adv-x="503" 
d="M219 339c11.333 0 20.833 -3.83301 28.5 -11.5s11.5 -17.167 11.5 -28.5s-3.83301 -20.833 -11.5 -28.5s-17.167 -11.5 -28.5 -11.5s-20.833 3.83301 -28.5 11.5s-11.5 17.167 -11.5 28.5s3.83301 20.833 11.5 28.5s17.167 11.5 28.5 11.5zM416 600
c16 0 28.833 -4.83301 38.5 -14.5s14.5 -22.5 14.5 -38.5v-27h-61v-520h-84v520h-318v80h410z" />
    <glyph glyph-name="uniFB34" unicode="&#xfb34;" horiz-adv-x="537" 
d="M264 339c11.333 0 20.833 -3.83301 28.5 -11.5s11.5 -17.167 11.5 -28.5s-4 -20.833 -12 -28.5s-17.333 -11.5 -28 -11.5s-20 3.83301 -28 11.5s-12 17.167 -12 28.5s3.83301 20.833 11.5 28.5s17.167 11.5 28.5 11.5zM484 0h-84v520h-348v80h379
c16 0 28.833 -4.83301 38.5 -14.5s14.5 -22.5 14.5 -38.5v-547zM52 345h84v-345h-84v345z" />
    <glyph glyph-name="afii57723" unicode="&#xfb35;" horiz-adv-x="237" 
d="M39 339c11.333 0 20.833 -3.83301 28.5 -11.5s11.5 -17.167 11.5 -28.5s-3.83301 -20.833 -11.5 -28.5s-17.167 -11.5 -28.5 -11.5s-20.833 3.83301 -28.5 11.5s-11.5 17.167 -11.5 28.5s3.83301 20.833 11.5 28.5s17.167 11.5 28.5 11.5zM184 0h-84v520h-54v80h85
c16 0 28.833 -4.83301 38.5 -14.5s14.5 -22.5 14.5 -38.5v-547z" />
    <glyph glyph-name="uniFB36" unicode="&#xfb36;" horiz-adv-x="296" 
d="M39 339c11.333 0 20.833 -3.83301 28.5 -11.5s11.5 -17.167 11.5 -28.5s-3.83301 -20.833 -11.5 -28.5s-17.167 -11.5 -28.5 -11.5s-20.833 3.83301 -28.5 11.5s-11.5 17.167 -11.5 28.5s3.83301 20.833 11.5 28.5s17.167 11.5 28.5 11.5zM265 520h-51l-32 -115v-405h-84
v405l32 115h-66v80h148c16 0 28.833 -4.83301 38.5 -14.5s14.5 -22.5 14.5 -38.5v-27z" />
    <glyph glyph-name="uniFB38" unicode="&#xfb38;" horiz-adv-x="540" 
d="M282 273c11.333 0 20.833 -3.83301 28.5 -11.5s11.5 -17.167 11.5 -28.5s-4 -20.833 -12 -28.5s-17.333 -11.5 -28 -11.5s-20 3.83301 -28 11.5s-12 17.167 -12 28.5s3.83301 20.833 11.5 28.5s17.167 11.5 28.5 11.5zM150 80h262v285c0 78 -26.667 124.667 -80 140
l-51 -160h-73l77 255c68.667 -5.33301 121 -29 157 -71s54 -101.667 54 -179v-350h-430v405l32 115h-54v80h99c15.333 0 28 -4.83301 38 -14.5s15 -22.5 15 -38.5v-27h-14l-32 -115v-325z" />
    <glyph glyph-name="uniFB39" unicode="&#xfb39;" horiz-adv-x="226" 
d="M39 438c11.333 0 20.833 -3.83301 28.5 -11.5s11.5 -17.167 11.5 -28.5s-3.83301 -20.833 -11.5 -28.5s-17.167 -11.5 -28.5 -11.5s-20.833 3.83301 -28.5 11.5s-11.5 17.167 -11.5 28.5s3.83301 20.833 11.5 28.5s17.167 11.5 28.5 11.5zM182 336h-84v184h-54v80h85
c16 0 28.833 -4.83301 38.5 -14.5s14.5 -22.5 14.5 -38.5v-211z" />
    <glyph glyph-name="uniFB3A" unicode="&#xfb3a;" horiz-adv-x="488" 
d="M216 339c11.333 0 20.833 -3.83301 28.5 -11.5s11.5 -17.167 11.5 -28.5s-4 -20.833 -12 -28.5s-17.333 -11.5 -28 -11.5s-20 3.83301 -28 11.5s-12 17.167 -12 28.5s3.83301 20.833 11.5 28.5s17.167 11.5 28.5 11.5zM435 -240h-84v760h-348v80h379
c16 0 28.833 -4.83301 38.5 -14.5s14.5 -22.5 14.5 -38.5v-787z" />
    <glyph glyph-name="uniFB3B" unicode="&#xfb3b;" horiz-adv-x="518" 
d="M255 339c11.333 0 20.833 -3.83301 28.5 -11.5s11.5 -17.167 11.5 -28.5s-3.83301 -20.833 -11.5 -28.5s-17.167 -11.5 -28.5 -11.5s-20.833 3.83301 -28.5 11.5s-11.5 17.167 -11.5 28.5s3.83301 20.833 11.5 28.5s17.167 11.5 28.5 11.5zM468 547v-408
c0 -42 -12.167 -75.833 -36.5 -101.5s-58.833 -38.5 -103.5 -38.5h-286v80h290c15.333 0 27.833 4.83301 37.5 14.5s14.5 22.167 14.5 37.5v388h-342v80h373c16 0 28.833 -4.66699 38.5 -14s14.5 -22 14.5 -38z" />
    <glyph glyph-name="uniFB3C" unicode="&#xfb3c;" horiz-adv-x="483" 
d="M208 339c11.333 0 20.833 -3.83301 28.5 -11.5s11.5 -17.167 11.5 -28.5s-4 -20.833 -12 -28.5s-17.333 -11.5 -28 -11.5s-20 3.83301 -28 11.5s-12 17.167 -12 28.5s3.83301 20.833 11.5 28.5s17.167 11.5 28.5 11.5zM16 712h84v-112h283
c16 0 28.833 -4.83301 38.5 -14.5s14.5 -22.5 14.5 -38.5v-343c0 -59.333 -21 -109.833 -63 -151.5s-92.333 -62.5 -151 -62.5v84c36 0 66.667 12.667 92 38s38 56 38 92v316h-336v192z" />
    <glyph glyph-name="uniFB3E" unicode="&#xfb3e;" horiz-adv-x="550" 
d="M294 339c11.333 0 20.833 -3.83301 28.5 -11.5s11.5 -17.167 11.5 -28.5s-4 -20.833 -12 -28.5s-17.333 -11.5 -28 -11.5s-20 3.83301 -28 11.5s-12 17.167 -12 28.5s3.83301 20.833 11.5 28.5s17.167 11.5 28.5 11.5zM160 0h-84v520h-36v80h67
c26.667 0 43.667 -12 51 -36c38 30.667 82 46 132 46c58.667 0 109 -21 151 -63s63 -92.333 63 -151v-396h-254v80h170v316c0 36 -12.667 66.667 -38 92s-56 38 -92 38s-66.667 -12.667 -92 -38s-38 -56 -38 -92v-396z" />
    <glyph glyph-name="uniFB40" unicode="&#xfb40;" horiz-adv-x="263" 
d="M57 339c11.333 0 20.833 -3.83301 28.5 -11.5s11.5 -17.167 11.5 -28.5s-3.83301 -20.833 -11.5 -28.5s-17.167 -11.5 -28.5 -11.5s-20.833 3.83301 -28.5 11.5s-11.5 17.167 -11.5 28.5s3.83301 20.833 11.5 28.5s17.167 11.5 28.5 11.5zM39 0v80l87 1v439h-66v80h97
c16 0 28.833 -4.83301 38.5 -14.5s14.5 -22.5 14.5 -38.5v-547h-171z" />
    <glyph glyph-name="uniFB41" unicode="&#xfb41;" horiz-adv-x="536" 
d="M278 339c11.333 0 20.833 -3.83301 28.5 -11.5s11.5 -17.167 11.5 -28.5s-4 -20.833 -12 -28.5s-17.333 -11.5 -28 -11.5s-20 3.83301 -28 11.5s-12 17.167 -12 28.5s3.83301 20.833 11.5 28.5s17.167 11.5 28.5 11.5zM489 204c0 -59.333 -20.833 -109.833 -62.5 -151.5
s-92.167 -62.5 -151.5 -62.5s-109.833 20.833 -151.5 62.5s-62.5 92.167 -62.5 151.5v201l32 115h-50v80h393c16 0 28.833 -4.83301 38.5 -14.5s14.5 -22.5 14.5 -38.5v-343zM405 204v316h-260v-316c0 -36 12.667 -66.667 38 -92s56 -38 92 -38s66.667 12.667 92 38
s38 56 38 92z" />
    <glyph glyph-name="uniFB43" unicode="&#xfb43;" horiz-adv-x="529" 
d="M309 420c11.333 0 20.833 -3.83301 28.5 -11.5s11.5 -17.167 11.5 -28.5s-3.83301 -20.833 -11.5 -28.5s-17.167 -11.5 -28.5 -11.5s-20.833 3.83301 -28.5 11.5s-11.5 17.167 -11.5 28.5s3.83301 20.833 11.5 28.5s17.167 11.5 28.5 11.5zM248 260h-200v145l32 115h-50
v80h393c16 0 28.833 -4.83301 38.5 -14.5s14.5 -22.5 14.5 -38.5v-787h-84v760h-260v-180h116v-80z" />
    <glyph glyph-name="uniFB44" unicode="&#xfb44;" horiz-adv-x="544" 
d="M336 420c11.333 0 20.833 -3.83301 28.5 -11.5s11.5 -17.167 11.5 -28.5s-4 -20.833 -12 -28.5s-17.333 -11.5 -28 -11.5s-20 3.83301 -28 11.5s-12 17.167 -12 28.5s3.83301 20.833 11.5 28.5s17.167 11.5 28.5 11.5zM150 520v-180h116v-80h-200v145l32 115h-50v80h393
c16 0 28.833 -4.83301 38.5 -14.5s14.5 -22.5 14.5 -38.5v-407c0 -42.667 -12.167 -76.667 -36.5 -102s-58.833 -38 -103.5 -38h-306v80h310c15.333 0 27.833 4.66699 37.5 14s14.5 22 14.5 38v388h-260z" />
    <glyph glyph-name="uniFB46" unicode="&#xfb46;" horiz-adv-x="534" 
d="M150 222c11.333 0 20.833 -3.83301 28.5 -11.5s11.5 -17.167 11.5 -28.5s-4 -20.833 -12 -28.5s-17.333 -11.5 -28 -11.5s-20 3.83301 -28 11.5s-12 17.167 -12 28.5s3.83301 20.833 11.5 28.5s17.167 11.5 28.5 11.5zM261 346l10 0.000976562c36 0 66.667 12.667 92 38
s38 56 38 92v44h-46v80h77c16 0 28.833 -4.83301 38.5 -14.5s14.5 -22.5 14.5 -38.5v-71c0 -54.667 -17 -100.834 -51 -138.501s-70.667 -60.5 -110 -68.5l155 -189v-80h-427v80h325l-280 342v98h-54v80h85c16 0 28.833 -4.83301 38.5 -14.5s14.5 -22.5 14.5 -38.5v-103z
" />
    <glyph glyph-name="uniFB47" unicode="&#xfb47;" horiz-adv-x="519" 
d="M255 339c11.333 0 20.833 -3.83301 28.5 -11.5s11.5 -17.167 11.5 -28.5s-3.83301 -20.833 -11.5 -28.5s-17.167 -11.5 -28.5 -11.5s-20.833 3.83301 -28.5 11.5s-11.5 17.167 -11.5 28.5s3.83301 20.833 11.5 28.5s17.167 11.5 28.5 11.5zM258 -10v84
c36 0 66.667 12.667 92 38s38 56 38 92v316h-336v80h367c16 0 28.833 -4.83301 38.5 -14.5s14.5 -22.5 14.5 -38.5v-343c0 -59.333 -21 -109.833 -63 -151.5s-92.333 -62.5 -151 -62.5zM52 345h84v-585h-84v585z" />
    <glyph glyph-name="uniFB48" unicode="&#xfb48;" horiz-adv-x="455" 
d="M192 339c11.333 0 20.833 -3.83301 28.5 -11.5s11.5 -17.167 11.5 -28.5s-4 -20.833 -12 -28.5s-17.333 -11.5 -28 -11.5s-20 3.83301 -28 11.5s-12 17.167 -12 28.5s3.83301 20.833 11.5 28.5s17.167 11.5 28.5 11.5zM266 520h-260v80h256
c44.667 0 79.167 -12.833 103.5 -38.5s36.5 -59.5 36.5 -101.5v-460h-84v468c0 15.333 -4.66699 27.833 -14 37.5s-22 14.5 -38 14.5z" />
    <glyph glyph-name="uniFB49" unicode="&#xfb49;" horiz-adv-x="740" 
d="M472 339c11.333 0 20.833 -3.83301 28.5 -11.5s11.5 -17.167 11.5 -28.5s-4 -20.833 -12 -28.5s-17.333 -11.5 -28 -11.5s-20 3.83301 -28 11.5s-12 17.167 -12 28.5s3.83301 20.833 11.5 28.5s17.167 11.5 28.5 11.5zM22 0v405l32 115h-54v80h92
c16 0 28.833 -4.83301 38.5 -14.5s14.5 -22.5 14.5 -38.5v-27h-7l-32 -115v-325h186v440h-54v80h85c16 0 28.833 -4.83301 38.5 -14.5s14.5 -22.5 14.5 -38.5v-467h134c15.333 0 27.833 4.66699 37.5 14s14.5 22 14.5 38v388h-54v80h85c16 0 28.833 -4.83301 38.5 -14.5
s14.5 -22.5 14.5 -38.5v-407c0 -42.667 -12.167 -76.667 -36.5 -102s-58.833 -38 -103.5 -38h-484z" />
    <glyph glyph-name="uniFB4A" unicode="&#xfb4a;" horiz-adv-x="560" 
d="M291 339c11.333 0 20.833 -3.83301 28.5 -11.5s11.5 -17.167 11.5 -28.5s-3.83301 -20.833 -11.5 -28.5s-17.167 -11.5 -28.5 -11.5s-20.833 3.83301 -28.5 11.5s-11.5 17.167 -11.5 28.5s3.83301 20.833 11.5 28.5s17.167 11.5 28.5 11.5zM163 0h-124v80h40v325l32 115
h-50v80h393c16 0 28.833 -4.83301 38.5 -14.5s14.5 -22.5 14.5 -38.5v-547h-84v520h-260v-520z" />
    <glyph glyph-name="afii57700" unicode="&#xfb4b;" horiz-adv-x="228" 
d="M129 740c11.333 0 20.833 -4 28.5 -12s11.5 -17.333 11.5 -28s-3.83301 -20 -11.5 -28s-17.167 -12 -28.5 -12s-20.833 4 -28.5 12s-11.5 17.333 -11.5 28s3.83301 20 11.5 28s17.167 12 28.5 12zM175 0h-84v520h-54v80h85c16 0 28.833 -4.83301 38.5 -14.5
s14.5 -22.5 14.5 -38.5v-547z" />
    <glyph glyph-name="uniFB4C" unicode="&#xfb4c;" horiz-adv-x="557" 
d="M149 710h200v-60h-200v60zM42 600h375c16 0 28.833 -4.83301 38.5 -14.5s14.5 -22.5 14.5 -38.5v-467h45v-80h-473v80h344v440h-344v80z" />
    <glyph glyph-name="uniFB4D" unicode="&#xfb4d;" horiz-adv-x="518" 
d="M149 710h200v-60h-200v60zM468 547v-407c0 -42 -12.167 -75.833 -36.5 -101.5s-58.833 -38.5 -103.5 -38.5h-286v80h290c15.333 0 27.833 4.66699 37.5 14s14.5 22 14.5 38v388h-342v80h373c16 0 28.833 -4.83301 38.5 -14.5s14.5 -22.5 14.5 -38.5z" />
    <glyph glyph-name="uniFB4E" unicode="&#xfb4e;" horiz-adv-x="544" 
d="M167 710h200v-60h-200v60zM150 520v-180h116v-80h-200v145l32 115h-50v80h393c16 0 28.833 -4.83301 38.5 -14.5s14.5 -22.5 14.5 -38.5v-407c0 -42 -12.167 -75.833 -36.5 -101.5s-58.833 -38.5 -103.5 -38.5h-306v80h310c15.333 0 27.833 4.66699 37.5 14
s14.5 22 14.5 38v388h-260z" />
    <glyph glyph-name="uniFB4F" unicode="&#xfb4f;" horiz-adv-x="529" 
d="M143 600l166.002 -288.998c17.333 7.33301 31.5 16 42.5 26s19.167 21.167 24.5 33.5s9.16602 26.166 11.499 41.499s3.33301 32 3 50s-0.5 37.333 -0.5 58h-45v80h72c16 0 28.833 -4.83301 38.5 -14.5s14.5 -22.5 14.5 -38.5c0 -36 -0.333008 -63.667 -1 -83
s-2.33398 -40.166 -5.00098 -62.499s-6.5 -39.5 -11.5 -51.5s-12.167 -24.833 -21.5 -38.5s-20.833 -25.334 -34.5 -35.001s-30.5 -19.834 -50.5 -30.501l141 -246h-88l-340 593v119h84v-112z" />
    <glyph glyph-name=".null" 
 />
    <glyph glyph-name="nonmarkingreturn" horiz-adv-x="363" 
 />
  </font>
</defs>
</svg>
